<svg xmlns="http://www.w3.org/2000/svg" xmlns:xlink="http://www.w3.org/1999/xlink" width="597.102" height="492.537" viewBox="0 0 597.102 492.537">
  <defs>
    <clipPath id="clip-path">
      <rect id="Rectángulo_406839" data-name="Rectángulo 406839" width="183.5" height="349.739" fill="none"/>
    </clipPath>
  </defs>
  <g id="Grupo_1113834" data-name="Grupo 1113834" transform="translate(-514.609 -9457.697)">
    <path id="Trazado_895471" data-name="Trazado 895471" d="M27.766,0H0" transform="translate(780.738 9543.729) rotate(180)" fill="none" stroke="#31a77e" stroke-width="4"/>
    <path id="Trazado_895472" data-name="Trazado 895472" d="M27.766,0H0" transform="translate(746.922 9514.412) rotate(90)" fill="none" stroke="#31a77e" stroke-width="4"/>
    <path id="Trazado_895473" data-name="Trazado 895473" d="M27.766,0H0" transform="translate(684.027 9510.229) rotate(180)" fill="none" stroke="#31a77e" stroke-width="4"/>
    <path id="Trazado_895474" data-name="Trazado 895474" d="M27.766,0H0" transform="translate(650.211 9482.463) rotate(90)" fill="none" stroke="#31a77e" stroke-width="4"/>
    <path id="Trazado_895475" data-name="Trazado 895475" d="M27.766,0H0" transform="translate(599.211 9532.463) rotate(90)" fill="none" stroke="#31a77e" stroke-width="4"/>
    <path id="Trazado_895476" data-name="Trazado 895476" d="M27.766,0H0" transform="translate(554.395 9577.279)" fill="none" stroke="#31a77e" stroke-width="4"/>
    <path id="Trazado_895477" data-name="Trazado 895477" d="M27.766,0H0" transform="translate(767.027 9631.279) rotate(180)" fill="none" stroke="#31a77e" stroke-width="4"/>
    <path id="Trazado_895478" data-name="Trazado 895478" d="M27.766,0H0" transform="translate(822.027 9694.098) rotate(180)" fill="none" stroke="#31a77e" stroke-width="4"/>
    <path id="Trazado_895491" data-name="Trazado 895491" d="M65.009,0H0" transform="translate(975.271 9735.229) rotate(180)" fill="none" stroke="#31a77e" stroke-width="10"/>
    <path id="Trazado_895479" data-name="Trazado 895479" d="M27.766,0H0" transform="translate(709.027 9709.098) rotate(180)" fill="none" stroke="#31a77e" stroke-width="4"/>
    <path id="Trazado_895480" data-name="Trazado 895480" d="M27.766,0H0" transform="translate(708.027 9754.098) rotate(180)" fill="none" stroke="#31a77e" stroke-width="4"/>
    <path id="Trazado_895481" data-name="Trazado 895481" d="M27.766,0H0" transform="translate(796.578 9864.469) rotate(180)" fill="none" stroke="#31a77e" stroke-width="4"/>
    <path id="Trazado_895482" data-name="Trazado 895482" d="M27.766,0H0" transform="translate(695.578 9873.469) rotate(180)" fill="none" stroke="#31a77e" stroke-width="4"/>
    <path id="Trazado_895486" data-name="Trazado 895486" d="M27.766,0H0" transform="translate(555.945 9873.469)" fill="none" stroke="#31a77e" stroke-width="4"/>
    <path id="Trazado_895483" data-name="Trazado 895483" d="M27.766,0H0" transform="translate(601.762 9908.285) rotate(-90)" fill="none" stroke="#31a77e" stroke-width="4"/>
    <path id="Trazado_895484" data-name="Trazado 895484" d="M27.766,0H0" transform="translate(656.762 9908.285) rotate(-90)" fill="none" stroke="#31a77e" stroke-width="4"/>
    <path id="Trazado_895485" data-name="Trazado 895485" d="M27.766,0H0" transform="translate(752.762 9908.285) rotate(-90)" fill="none" stroke="#31a77e" stroke-width="4"/>
    <path id="Trazado_895951" data-name="Trazado 895951" d="M4.5,0,9,8H0Z" transform="translate(786.871 9539.229) rotate(90)" fill="#169f70"/>
    <path id="Trazado_895955" data-name="Trazado 895955" d="M4.5,0,9,8H0Z" transform="translate(742.422 9508.279)" fill="#169f70"/>
    <path id="Trazado_895956" data-name="Trazado 895956" d="M4.5,0,9,8H0Z" transform="translate(690.16 9505.729) rotate(90)" fill="#169f70"/>
    <path id="Trazado_895959" data-name="Trazado 895959" d="M4.5,0,9,8H0Z" transform="translate(645.711 9476.33)" fill="#169f70"/>
    <path id="Trazado_895952" data-name="Trazado 895952" d="M4.5,0,9,8H0Z" transform="translate(594.711 9526.33)" fill="#169f70"/>
    <path id="Trazado_895947" data-name="Trazado 895947" d="M4.5,0,9,8H0Z" transform="translate(548.262 9581.779) rotate(-90)" fill="#169f70"/>
    <path id="Trazado_895942" data-name="Trazado 895942" d="M4.5,0,9,8H0Z" transform="translate(773.16 9626.779) rotate(90)" fill="#169f70"/>
    <path id="Trazado_895911" data-name="Trazado 895911" d="M4.5,0,9,8H0Z" transform="translate(828.16 9689.598) rotate(90)" fill="#169f70"/>
    <path id="Trazado_895912" data-name="Trazado 895912" d="M10.5,0,21,13H0Z" transform="translate(987.05 9724.729) rotate(90)" fill="#169f70"/>
    <path id="Trazado_895913" data-name="Trazado 895913" d="M4.5,0,9,8H0Z" transform="translate(715.16 9704.598) rotate(90)" fill="#169f70"/>
    <path id="Trazado_895914" data-name="Trazado 895914" d="M4.5,0,9,8H0Z" transform="translate(714.16 9749.598) rotate(90)" fill="#169f70"/>
    <path id="Trazado_895915" data-name="Trazado 895915" d="M4.5,0,9,8H0Z" transform="translate(802.711 9859.969) rotate(90)" fill="#169f70"/>
    <path id="Trazado_895916" data-name="Trazado 895916" d="M4.5,0,9,8H0Z" transform="translate(701.711 9868.969) rotate(90)" fill="#169f70"/>
    <path id="Trazado_895937" data-name="Trazado 895937" d="M4.5,0,9,8H0Z" transform="translate(549.813 9877.969) rotate(-90)" fill="#169f70"/>
    <path id="Trazado_895938" data-name="Trazado 895938" d="M4.5,0,9,8H0Z" transform="translate(606.262 9914.418) rotate(180)" fill="#169f70"/>
    <path id="Trazado_895935" data-name="Trazado 895935" d="M4.5,0,9,8H0Z" transform="translate(661.262 9914.418) rotate(180)" fill="#169f70"/>
    <path id="Trazado_895917" data-name="Trazado 895917" d="M4.5,0,9,8H0Z" transform="translate(757.262 9914.418) rotate(180)" fill="#169f70"/>
    <g id="Grupo_1113639" data-name="Grupo 1113639" transform="translate(599.211 9519.229)">
      <g id="Grupo_1113638" data-name="Grupo 1113638" clip-path="url(#clip-path)">
        <path id="Trazado_895487" data-name="Trazado 895487" d="M80.726,344.29l-10.618,5.188L59.49,344.69H.5V56.954C48.675,53.162,52.215.684,52.215.684l90.648,31.527c-44.832,130.5,40.309,140.376,40.309,140.376L175.9,208.8l1.278,14.665-6.292,11.374-17.7,109.248Z" transform="translate(-0.123 -0.161)" fill="none" stroke="#000" stroke-miterlimit="10" stroke-width="1"/>
      </g>
    </g>
    <path id="Trazado_895918" data-name="Trazado 895918" d="M3.5,0A3.5,3.5,0,1,1,0,3.5,3.5,3.5,0,0,1,3.5,0Z" transform="translate(774.422 9738.729)" fill="#e8624e"/>
    <path id="Trazado_895919" data-name="Trazado 895919" d="M3.5,0A3.5,3.5,0,1,1,0,3.5,3.5,3.5,0,0,1,3.5,0Z" transform="translate(748.422 9859.729)" fill="#e8624e"/>
    <path id="Trazado_895920" data-name="Trazado 895920" d="M3.5,0A3.5,3.5,0,1,1,0,3.5,3.5,3.5,0,0,1,3.5,0Z" transform="translate(665.422 9864.729)" fill="#e8624e"/>
    <path id="Trazado_895939" data-name="Trazado 895939" d="M3.5,0A3.5,3.5,0,1,1,0,3.5,3.5,3.5,0,0,1,3.5,0Z" transform="translate(596.422 9859.729)" fill="#e8624e"/>
    <path id="Trazado_895921" data-name="Trazado 895921" d="M3.5,0A3.5,3.5,0,1,1,0,3.5,3.5,3.5,0,0,1,3.5,0Z" transform="translate(772.422 9726.729)" fill="#e8624e"/>
    <path id="Trazado_895948" data-name="Trazado 895948" d="M3.5,0A3.5,3.5,0,1,1,0,3.5,3.5,3.5,0,0,1,3.5,0Z" transform="translate(596.422 9573.729)" fill="#e8624e"/>
    <path id="Trazado_895954" data-name="Trazado 895954" d="M3.5,0A3.5,3.5,0,1,1,0,3.5,3.5,3.5,0,0,1,3.5,0Z" transform="translate(647.422 9516.729)" fill="#e8624e"/>
    <path id="Trazado_895950" data-name="Trazado 895950" d="M3.5,0A3.5,3.5,0,1,1,0,3.5,3.5,3.5,0,0,1,3.5,0Z" transform="translate(737.422 9547.729)" fill="#e8624e"/>
    <path id="Trazado_895943" data-name="Trazado 895943" d="M3.5,0A3.5,3.5,0,1,1,0,3.5,3.5,3.5,0,0,1,3.5,0Z" transform="translate(725.422 9628.729)" fill="#e8624e"/>
    <path id="Trazado_895940" data-name="Trazado 895940" d="M2,0A2,2,0,1,1,0,2,2,2,0,0,1,2,0Z" transform="translate(741.422 9666.729)" fill="#e8624e"/>
    <path id="Trazado_895922" data-name="Trazado 895922" d="M3.5,0A3.5,3.5,0,1,1,0,3.5,3.5,3.5,0,0,1,3.5,0Z" transform="translate(779.422 9688.729)" fill="#e8624e"/>
    <path id="Trazado_895489" data-name="Trazado 895489" d="M-.736,88.97S12.543-.831,12.523-.092s9.984,90.013,9.984,90.013" transform="matrix(0.105, -0.995, 0.995, 0.105, 682.64, 9742.006)" fill="none" stroke="#000" stroke-width="1" stroke-dasharray="13"/>
    <g id="Trazado_895923" data-name="Trazado 895923" transform="translate(658.422 9748.729)" fill="none">
      <path d="M8.5,0A8.5,8.5,0,1,1,0,8.5,8.5,8.5,0,0,1,8.5,0Z" stroke="none"/>
      <path d="M 8.5 1 C 4.364489555358887 1 1 4.364489555358887 1 8.5 C 1 12.6355094909668 4.364489555358887 16 8.5 16 C 12.6355094909668 16 16 12.6355094909668 16 8.5 C 16 4.364489555358887 12.6355094909668 1 8.5 1 M 8.5 0 C 13.19441986083984 0 17 3.805580139160156 17 8.5 C 17 13.19441986083984 13.19441986083984 17 8.5 17 C 3.805580139160156 17 0 13.19441986083984 0 8.5 C 0 3.805580139160156 3.805580139160156 0 8.5 0 Z" stroke="none" fill="#000"/>
    </g>
    <g id="Trazado_895924" data-name="Trazado 895924" transform="matrix(0.105, -0.995, 0.995, 0.105, 680.262, 9737.939)" fill="none">
      <path d="M8.5,0A8.5,8.5,0,1,1,0,8.5,8.5,8.5,0,0,1,8.5,0Z" stroke="none"/>
      <path d="M 8.5 1 C 4.364489555358887 1 1 4.364489555358887 1 8.5 C 1 12.6355094909668 4.364489555358887 16 8.5 16 C 12.6355094909668 16 16 12.6355094909668 16 8.5 C 16 4.364489555358887 12.6355094909668 1 8.5 1 M 8.5 0 C 13.19441986083984 0 17 3.805580139160156 17 8.5 C 17 13.19441986083984 13.19441986083984 17 8.5 17 C 3.805580139160156 17 0 13.19441986083984 0 8.5 C 0 3.805580139160156 3.805580139160156 0 8.5 0 Z" stroke="none" fill="#000"/>
    </g>
    <path id="Trazado_895925" data-name="Trazado 895925" d="M3.5,0A3.5,3.5,0,1,1,0,3.5,3.5,3.5,0,0,1,3.5,0Z" transform="translate(767.422 9748.729)" fill="#e8624e"/>
    <path id="Trazado_895488" data-name="Trazado 895488" d="M-9355.66-3289.258s10.522-111.757,10.522-110.834,12.356,112.679,12.356,112.679" transform="translate(10012.422 13151.729)" fill="none" stroke="#000" stroke-width="1" stroke-dasharray="13"/>
    <path id="Trazado_895926" data-name="Trazado 895926" d="M3.5,0A3.5,3.5,0,1,1,0,3.5,3.5,3.5,0,0,1,3.5,0Z" transform="translate(675.422 9859.729)" fill="#e8624e"/>
    <path id="Trazado_895936" data-name="Trazado 895936" d="M3.5,0A3.5,3.5,0,1,1,0,3.5,3.5,3.5,0,0,1,3.5,0Z" transform="translate(654.422 9859.729)" fill="#e8624e"/>
    <path id="Trazado_895490" data-name="Trazado 895490" d="M-9405.327-3532.122c0-.719,8.151-18.46,8.151-18.46v197.068" transform="translate(10012.422 13151.729)" fill="none" stroke="#000" stroke-width="1"/>
    <path id="Trazado_895927" data-name="Trazado 895927" d="M15,0h89a15,15,0,0,1,0,30H15A15,15,0,0,1,15,0Z" transform="translate(992.711 9720)" fill="#e7f5f0"/>
    <path id="Trazado_895928" data-name="Trazado 895928" d="M2.82,12.547V17H1.32V5.625h4.2a4.215,4.215,0,0,1,2.926.953A3.231,3.231,0,0,1,9.5,9.1a3.189,3.189,0,0,1-1.035,2.551,4.4,4.4,0,0,1-2.965.895Zm0-1.227h2.7a2.7,2.7,0,0,0,1.844-.566A2.069,2.069,0,0,0,8,9.117a2.138,2.138,0,0,0-.641-1.625A2.528,2.528,0,0,0,5.6,6.859H2.82Zm13.586,4.844a3.07,3.07,0,0,1-2.477.992,2.628,2.628,0,0,1-2.059-.785,3.4,3.4,0,0,1-.715-2.324v-5.5H12.6v5.461q0,1.922,1.563,1.922a2.163,2.163,0,0,0,2.2-1.234V8.547h1.445V17H16.438Zm4.969-7.617.047,1.063a3.08,3.08,0,0,1,2.531-1.219q2.68,0,2.7,3.023V17H25.211V11.406a1.946,1.946,0,0,0-.418-1.352,1.675,1.675,0,0,0-1.277-.437,2.086,2.086,0,0,0-1.234.375,2.546,2.546,0,0,0-.828.984V17H20.008V8.547ZM30.8,6.5V8.547h1.578V9.664H30.8v5.242a1.171,1.171,0,0,0,.211.762.888.888,0,0,0,.719.254,3.5,3.5,0,0,0,.688-.094V17a4.19,4.19,0,0,1-1.109.156,1.8,1.8,0,0,1-1.461-.586,2.517,2.517,0,0,1-.492-1.664V9.664H27.813V8.547h1.539V6.5Zm2.727,6.2a4.993,4.993,0,0,1,.488-2.234A3.643,3.643,0,0,1,35.371,8.93a3.7,3.7,0,0,1,1.988-.539,3.565,3.565,0,0,1,2.793,1.2,4.6,4.6,0,0,1,1.066,3.18v.1a5.036,5.036,0,0,1-.473,2.215,3.589,3.589,0,0,1-1.352,1.527,3.743,3.743,0,0,1-2.02.547,3.556,3.556,0,0,1-2.785-1.2A4.575,4.575,0,0,1,33.523,12.8Zm1.453.172a3.616,3.616,0,0,0,.652,2.258,2.211,2.211,0,0,0,3.5-.012,3.955,3.955,0,0,0,.648-2.418,3.61,3.61,0,0,0-.66-2.254,2.1,2.1,0,0,0-1.754-.863,2.075,2.075,0,0,0-1.727.852A3.925,3.925,0,0,0,34.977,12.867Zm13.375-4.32.039.938A3.122,3.122,0,0,1,50.9,8.391,2.417,2.417,0,0,1,53.313,9.75a3.2,3.2,0,0,1,1.1-.984,3.242,3.242,0,0,1,1.6-.375q2.781,0,2.828,2.945V17H57.391V11.422a1.941,1.941,0,0,0-.414-1.355,1.823,1.823,0,0,0-1.391-.449,1.916,1.916,0,0,0-1.336.48,1.949,1.949,0,0,0-.617,1.293V17H52.18V11.461a1.613,1.613,0,0,0-1.8-1.844,1.934,1.934,0,0,0-1.945,1.211V17H46.984V8.547Zm17.883,7.617a3.07,3.07,0,0,1-2.477.992,2.628,2.628,0,0,1-2.059-.785,3.4,3.4,0,0,1-.715-2.324v-5.5H62.43v5.461q0,1.922,1.563,1.922A2.163,2.163,0,0,0,66.2,14.7V8.547h1.445V17H66.266Zm7.109.992a3.693,3.693,0,0,1-2.8-1.129,4.19,4.19,0,0,1-1.078-3.02v-.266a5.073,5.073,0,0,1,.48-2.246,3.748,3.748,0,0,1,1.344-1.547,3.378,3.378,0,0,1,1.871-.559,3.166,3.166,0,0,1,2.563,1.086,4.7,4.7,0,0,1,.914,3.109v.6H70.914a3,3,0,0,0,.73,2.02,2.3,2.3,0,0,0,1.777.77,2.517,2.517,0,0,0,1.3-.312,3.259,3.259,0,0,0,.93-.828l.883.688A3.55,3.55,0,0,1,73.344,17.156Zm-.18-7.578a1.928,1.928,0,0,0-1.469.637A3.1,3.1,0,0,0,70.961,12H75.2v-.109a2.753,2.753,0,0,0-.594-1.707A1.815,1.815,0,0,0,73.164,9.578Zm9.234.266a4.331,4.331,0,0,0-.711-.055A1.9,1.9,0,0,0,79.758,11v6H78.313V8.547h1.406l.023.977a2.251,2.251,0,0,1,2.016-1.133A1.477,1.477,0,0,1,82.4,8.5ZM86.078,6.5V8.547h1.578V9.664H86.078v5.242a1.171,1.171,0,0,0,.211.762.888.888,0,0,0,.719.254,3.5,3.5,0,0,0,.688-.094V17a4.19,4.19,0,0,1-1.109.156,1.8,1.8,0,0,1-1.461-.586,2.517,2.517,0,0,1-.492-1.664V9.664H83.094V8.547h1.539V6.5ZM88.8,12.7a4.993,4.993,0,0,1,.488-2.234A3.643,3.643,0,0,1,90.652,8.93a3.7,3.7,0,0,1,1.988-.539,3.565,3.565,0,0,1,2.793,1.2,4.6,4.6,0,0,1,1.066,3.18v.1a5.036,5.036,0,0,1-.473,2.215,3.589,3.589,0,0,1-1.352,1.527,3.743,3.743,0,0,1-2.02.547,3.556,3.556,0,0,1-2.785-1.2A4.575,4.575,0,0,1,88.8,12.8Zm1.453.172a3.616,3.616,0,0,0,.652,2.258,2.211,2.211,0,0,0,3.5-.012,3.955,3.955,0,0,0,.648-2.418,3.61,3.61,0,0,0-.66-2.254,2.1,2.1,0,0,0-1.754-.863,2.075,2.075,0,0,0-1.727.852A3.925,3.925,0,0,0,90.258,12.867Z" transform="translate(1002.711 9725)" fill="#12263f"/>
    <path id="Trazado_895929" data-name="Trazado 895929" d="M5.7,17H4.242V7.367L1.328,8.438V7.125L5.469,5.57H5.7ZM17.43,15.977a2.082,2.082,0,0,0,1.352-.469,1.649,1.649,0,0,0,.641-1.172h1.367a2.621,2.621,0,0,1-.5,1.383,3.293,3.293,0,0,1-1.23,1.047,3.55,3.55,0,0,1-1.629.391A3.482,3.482,0,0,1,14.684,16a4.59,4.59,0,0,1-1.02-3.152v-.242a5.089,5.089,0,0,1,.453-2.2,3.451,3.451,0,0,1,1.3-1.492,3.7,3.7,0,0,1,2-.531,3.39,3.39,0,0,1,2.363.852,3.043,3.043,0,0,1,1,2.211H19.422a1.992,1.992,0,0,0-.621-1.348,1.932,1.932,0,0,0-1.379-.527,2.023,2.023,0,0,0-1.707.793,3.724,3.724,0,0,0-.605,2.293v.273a3.65,3.65,0,0,0,.6,2.25A2.033,2.033,0,0,0,17.43,15.977Zm6.344-7.43.039.938A3.122,3.122,0,0,1,26.32,8.391,2.417,2.417,0,0,1,28.734,9.75a3.2,3.2,0,0,1,1.1-.984,3.242,3.242,0,0,1,1.6-.375q2.781,0,2.828,2.945V17H32.813V11.422a1.941,1.941,0,0,0-.414-1.355,1.823,1.823,0,0,0-1.391-.449,1.916,1.916,0,0,0-1.336.48,1.949,1.949,0,0,0-.617,1.293V17H27.6V11.461a1.613,1.613,0,0,0-1.8-1.844,1.934,1.934,0,0,0-1.945,1.211V17H22.406V8.547Z" transform="translate(843.766 9694.598)" fill="#12263f"/>
    <path id="Trazado_895910" data-name="Trazado 895910" d="M5.7,17H4.242V7.367L1.328,8.438V7.125L5.469,5.57H5.7ZM17.43,15.977a2.082,2.082,0,0,0,1.352-.469,1.649,1.649,0,0,0,.641-1.172h1.367a2.621,2.621,0,0,1-.5,1.383,3.293,3.293,0,0,1-1.23,1.047,3.55,3.55,0,0,1-1.629.391A3.482,3.482,0,0,1,14.684,16a4.59,4.59,0,0,1-1.02-3.152v-.242a5.089,5.089,0,0,1,.453-2.2,3.451,3.451,0,0,1,1.3-1.492,3.7,3.7,0,0,1,2-.531,3.39,3.39,0,0,1,2.363.852,3.043,3.043,0,0,1,1,2.211H19.422a1.992,1.992,0,0,0-.621-1.348,1.932,1.932,0,0,0-1.379-.527,2.023,2.023,0,0,0-1.707.793,3.724,3.724,0,0,0-.605,2.293v.273a3.65,3.65,0,0,0,.6,2.25A2.033,2.033,0,0,0,17.43,15.977Zm6.344-7.43.039.938A3.122,3.122,0,0,1,26.32,8.391,2.417,2.417,0,0,1,28.734,9.75a3.2,3.2,0,0,1,1.1-.984,3.242,3.242,0,0,1,1.6-.375q2.781,0,2.828,2.945V17H32.813V11.422a1.941,1.941,0,0,0-.414-1.355,1.823,1.823,0,0,0-1.391-.449,1.916,1.916,0,0,0-1.336.48,1.949,1.949,0,0,0-.617,1.293V17H27.6V11.461a1.613,1.613,0,0,0-1.8-1.844,1.934,1.934,0,0,0-1.945,1.211V17H22.406V8.547Z" transform="translate(815.422 9854.814)" fill="#12263f"/>
    <path id="Trazado_895944" data-name="Trazado 895944" d="M8.078,12.148a6.61,6.61,0,0,1-.867,3.773A3.084,3.084,0,0,1,4.5,17.156a3.107,3.107,0,0,1-2.7-1.207A6.274,6.274,0,0,1,.9,12.344v-1.93a6.463,6.463,0,0,1,.867-3.727A3.108,3.108,0,0,1,4.484,5.469a3.136,3.136,0,0,1,2.7,1.176,6.237,6.237,0,0,1,.891,3.629ZM6.633,10.172A5.3,5.3,0,0,0,6.117,7.5a1.775,1.775,0,0,0-1.633-.84,1.751,1.751,0,0,0-1.617.836,5.171,5.171,0,0,0-.523,2.57v2.313A5.381,5.381,0,0,0,2.879,15.1a1.771,1.771,0,0,0,1.621.879,1.747,1.747,0,0,0,1.59-.828,5.186,5.186,0,0,0,.543-2.609Zm3.4,9.094-.82-.562a3.77,3.77,0,0,0,.766-2.109v-1.3h1.414v1.133A3.559,3.559,0,0,1,11,18,3.7,3.7,0,0,1,10.031,19.266Zm3.7-7.969.578-5.672h5.828V6.961h-4.6l-.344,3.1a3.671,3.671,0,0,1,1.9-.492A3.138,3.138,0,0,1,19.563,10.6a4.026,4.026,0,0,1,.914,2.777,3.886,3.886,0,0,1-.949,2.77,3.46,3.46,0,0,1-2.652,1.012,3.6,3.6,0,0,1-2.461-.836,3.337,3.337,0,0,1-1.086-2.312H14.7a2.3,2.3,0,0,0,.7,1.473,2.162,2.162,0,0,0,1.484.5,1.95,1.95,0,0,0,1.582-.687,2.874,2.874,0,0,0,.574-1.9,2.638,2.638,0,0,0-.621-1.832,2.113,2.113,0,0,0-1.652-.691,2.383,2.383,0,0,0-1.484.414l-.383.313Z" transform="translate(782.711 9619.229)" fill="#12263f"/>
    <path id="Trazado_895949" data-name="Trazado 895949" d="M8.078,12.148a6.61,6.61,0,0,1-.867,3.773A3.084,3.084,0,0,1,4.5,17.156a3.107,3.107,0,0,1-2.7-1.207A6.274,6.274,0,0,1,.9,12.344v-1.93a6.463,6.463,0,0,1,.867-3.727A3.108,3.108,0,0,1,4.484,5.469a3.136,3.136,0,0,1,2.7,1.176,6.237,6.237,0,0,1,.891,3.629ZM6.633,10.172A5.3,5.3,0,0,0,6.117,7.5a1.775,1.775,0,0,0-1.633-.84,1.751,1.751,0,0,0-1.617.836,5.171,5.171,0,0,0-.523,2.57v2.313A5.381,5.381,0,0,0,2.879,15.1a1.771,1.771,0,0,0,1.621.879,1.747,1.747,0,0,0,1.59-.828,5.186,5.186,0,0,0,.543-2.609Zm3.4,9.094-.82-.562a3.77,3.77,0,0,0,.766-2.109v-1.3h1.414v1.133A3.559,3.559,0,0,1,11,18,3.7,3.7,0,0,1,10.031,19.266ZM18.742,5.617V6.844h-.266a3.805,3.805,0,0,0-2.687,1,4.161,4.161,0,0,0-1.156,2.727,3.085,3.085,0,0,1,2.453-1.031,2.95,2.95,0,0,1,2.371,1.047,4.038,4.038,0,0,1,.887,2.7,4.025,4.025,0,0,1-.957,2.813,3.3,3.3,0,0,1-2.566,1.055A3.247,3.247,0,0,1,14.172,15.9a4.97,4.97,0,0,1-1.016-3.23v-.555a7.488,7.488,0,0,1,1.34-4.8,4.921,4.921,0,0,1,3.988-1.7Zm-1.9,5.125A2.429,2.429,0,0,0,14.609,12.3v.531a3.731,3.731,0,0,0,.633,2.266,1.9,1.9,0,0,0,1.578.859,1.838,1.838,0,0,0,1.535-.719,2.982,2.982,0,0,0,.559-1.883,2.983,2.983,0,0,0-.566-1.895A1.816,1.816,0,0,0,16.844,10.742Z" transform="translate(765.16 9553.229)" fill="#12263f"/>
    <path id="Trazado_895958" data-name="Trazado 895958" d="M8.078,12.148a6.61,6.61,0,0,1-.867,3.773A3.084,3.084,0,0,1,4.5,17.156a3.107,3.107,0,0,1-2.7-1.207A6.274,6.274,0,0,1,.9,12.344v-1.93a6.463,6.463,0,0,1,.867-3.727A3.108,3.108,0,0,1,4.484,5.469a3.136,3.136,0,0,1,2.7,1.176,6.237,6.237,0,0,1,.891,3.629ZM6.633,10.172A5.3,5.3,0,0,0,6.117,7.5a1.775,1.775,0,0,0-1.633-.84,1.751,1.751,0,0,0-1.617.836,5.171,5.171,0,0,0-.523,2.57v2.313A5.381,5.381,0,0,0,2.879,15.1a1.771,1.771,0,0,0,1.621.879,1.747,1.747,0,0,0,1.59-.828,5.186,5.186,0,0,0,.543-2.609Zm3.4,9.094-.82-.562a3.77,3.77,0,0,0,.766-2.109v-1.3h1.414v1.133A3.559,3.559,0,0,1,11,18,3.7,3.7,0,0,1,10.031,19.266ZM20.523,17H13.07V15.961l3.938-4.375a9.354,9.354,0,0,0,1.207-1.613,2.693,2.693,0,0,0,.332-1.285,2.041,2.041,0,0,0-.539-1.461,1.885,1.885,0,0,0-1.437-.57,2.232,2.232,0,0,0-1.676.613,2.343,2.343,0,0,0-.6,1.707H12.852a3.355,3.355,0,0,1,1.012-2.539,3.751,3.751,0,0,1,2.707-.969,3.6,3.6,0,0,1,2.508.832A2.838,2.838,0,0,1,20,8.516q0,1.68-2.141,4l-3.047,3.3h5.711Zm2.2-5.7L23.3,5.625h5.828V6.961h-4.6l-.344,3.1a3.671,3.671,0,0,1,1.9-.492A3.138,3.138,0,0,1,28.547,10.6a4.026,4.026,0,0,1,.914,2.777,3.886,3.886,0,0,1-.949,2.77,3.46,3.46,0,0,1-2.652,1.012A3.6,3.6,0,0,1,23.4,16.32a3.337,3.337,0,0,1-1.086-2.312H23.68a2.3,2.3,0,0,0,.7,1.473,2.162,2.162,0,0,0,1.484.5,1.95,1.95,0,0,0,1.582-.687,2.874,2.874,0,0,0,.574-1.9,2.638,2.638,0,0,0-.621-1.832,2.113,2.113,0,0,0-1.652-.691,2.383,2.383,0,0,0-1.484.414l-.383.313Z" transform="translate(746.922 9485.229)" fill="#12263f"/>
    <path id="Trazado_895930" data-name="Trazado 895930" d="M8.078,12.148a6.61,6.61,0,0,1-.867,3.773A3.084,3.084,0,0,1,4.5,17.156a3.107,3.107,0,0,1-2.7-1.207A6.274,6.274,0,0,1,.9,12.344v-1.93a6.463,6.463,0,0,1,.867-3.727A3.108,3.108,0,0,1,4.484,5.469a3.136,3.136,0,0,1,2.7,1.176,6.237,6.237,0,0,1,.891,3.629ZM6.633,10.172A5.3,5.3,0,0,0,6.117,7.5a1.775,1.775,0,0,0-1.633-.84,1.751,1.751,0,0,0-1.617.836,5.171,5.171,0,0,0-.523,2.57v2.313A5.381,5.381,0,0,0,2.879,15.1a1.771,1.771,0,0,0,1.621.879,1.747,1.747,0,0,0,1.59-.828,5.186,5.186,0,0,0,.543-2.609Zm3.4,9.094-.82-.562a3.77,3.77,0,0,0,.766-2.109v-1.3h1.414v1.133A3.559,3.559,0,0,1,11,18,3.7,3.7,0,0,1,10.031,19.266ZM20.523,17H13.07V15.961l3.938-4.375a9.354,9.354,0,0,0,1.207-1.613,2.693,2.693,0,0,0,.332-1.285,2.041,2.041,0,0,0-.539-1.461,1.885,1.885,0,0,0-1.437-.57,2.232,2.232,0,0,0-1.676.613,2.343,2.343,0,0,0-.6,1.707H12.852a3.355,3.355,0,0,1,1.012-2.539,3.751,3.751,0,0,1,2.707-.969,3.6,3.6,0,0,1,2.508.832A2.838,2.838,0,0,1,20,8.516q0,1.68-2.141,4l-3.047,3.3h5.711Zm2.2-5.7L23.3,5.625h5.828V6.961h-4.6l-.344,3.1a3.671,3.671,0,0,1,1.9-.492A3.138,3.138,0,0,1,28.547,10.6a4.026,4.026,0,0,1,.914,2.777,3.886,3.886,0,0,1-.949,2.77,3.46,3.46,0,0,1-2.652,1.012A3.6,3.6,0,0,1,23.4,16.32a3.337,3.337,0,0,1-1.086-2.312H23.68a2.3,2.3,0,0,0,.7,1.473,2.162,2.162,0,0,0,1.484.5,1.95,1.95,0,0,0,1.582-.687,2.874,2.874,0,0,0,.574-1.9,2.638,2.638,0,0,0-.621-1.832,2.113,2.113,0,0,0-1.652-.691,2.383,2.383,0,0,0-1.484.414l-.383.313Z" transform="translate(690.961 9675.717)" fill="#12263f"/>
    <path id="Trazado_895931" data-name="Trazado 895931" d="M8.078,12.148a6.61,6.61,0,0,1-.867,3.773A3.084,3.084,0,0,1,4.5,17.156a3.107,3.107,0,0,1-2.7-1.207A6.274,6.274,0,0,1,.9,12.344v-1.93a6.463,6.463,0,0,1,.867-3.727A3.108,3.108,0,0,1,4.484,5.469a3.136,3.136,0,0,1,2.7,1.176,6.237,6.237,0,0,1,.891,3.629ZM6.633,10.172A5.3,5.3,0,0,0,6.117,7.5a1.775,1.775,0,0,0-1.633-.84,1.751,1.751,0,0,0-1.617.836,5.171,5.171,0,0,0-.523,2.57v2.313A5.381,5.381,0,0,0,2.879,15.1a1.771,1.771,0,0,0,1.621.879,1.747,1.747,0,0,0,1.59-.828,5.186,5.186,0,0,0,.543-2.609Zm3.4,9.094-.82-.562a3.77,3.77,0,0,0,.766-2.109v-1.3h1.414v1.133A3.559,3.559,0,0,1,11,18,3.7,3.7,0,0,1,10.031,19.266ZM20.523,17H13.07V15.961l3.938-4.375a9.354,9.354,0,0,0,1.207-1.613,2.693,2.693,0,0,0,.332-1.285,2.041,2.041,0,0,0-.539-1.461,1.885,1.885,0,0,0-1.437-.57,2.232,2.232,0,0,0-1.676.613,2.343,2.343,0,0,0-.6,1.707H12.852a3.355,3.355,0,0,1,1.012-2.539,3.751,3.751,0,0,1,2.707-.969,3.6,3.6,0,0,1,2.508.832A2.838,2.838,0,0,1,20,8.516q0,1.68-2.141,4l-3.047,3.3h5.711Zm2.2-5.7L23.3,5.625h5.828V6.961h-4.6l-.344,3.1a3.671,3.671,0,0,1,1.9-.492A3.138,3.138,0,0,1,28.547,10.6a4.026,4.026,0,0,1,.914,2.777,3.886,3.886,0,0,1-.949,2.77,3.46,3.46,0,0,1-2.652,1.012A3.6,3.6,0,0,1,23.4,16.32a3.337,3.337,0,0,1-1.086-2.312H23.68a2.3,2.3,0,0,0,.7,1.473,2.162,2.162,0,0,0,1.484.5,1.95,1.95,0,0,0,1.582-.687,2.874,2.874,0,0,0,.574-1.9,2.638,2.638,0,0,0-.621-1.832,2.113,2.113,0,0,0-1.652-.691,2.383,2.383,0,0,0-1.484.414l-.383.313Z" transform="translate(708.027 9760.717)" fill="#12263f"/>
    <path id="Trazado_895932" data-name="Trazado 895932" d="M8.078,12.148a6.61,6.61,0,0,1-.867,3.773A3.084,3.084,0,0,1,4.5,17.156a3.107,3.107,0,0,1-2.7-1.207A6.274,6.274,0,0,1,.9,12.344v-1.93a6.463,6.463,0,0,1,.867-3.727A3.108,3.108,0,0,1,4.484,5.469a3.136,3.136,0,0,1,2.7,1.176,6.237,6.237,0,0,1,.891,3.629ZM6.633,10.172A5.3,5.3,0,0,0,6.117,7.5a1.775,1.775,0,0,0-1.633-.84,1.751,1.751,0,0,0-1.617.836,5.171,5.171,0,0,0-.523,2.57v2.313A5.381,5.381,0,0,0,2.879,15.1a1.771,1.771,0,0,0,1.621.879,1.747,1.747,0,0,0,1.59-.828,5.186,5.186,0,0,0,.543-2.609Zm3.4,9.094-.82-.562a3.77,3.77,0,0,0,.766-2.109v-1.3h1.414v1.133A3.559,3.559,0,0,1,11,18,3.7,3.7,0,0,1,10.031,19.266ZM20.523,17H13.07V15.961l3.938-4.375a9.354,9.354,0,0,0,1.207-1.613,2.693,2.693,0,0,0,.332-1.285,2.041,2.041,0,0,0-.539-1.461,1.885,1.885,0,0,0-1.437-.57,2.232,2.232,0,0,0-1.676.613,2.343,2.343,0,0,0-.6,1.707H12.852a3.355,3.355,0,0,1,1.012-2.539,3.751,3.751,0,0,1,2.707-.969,3.6,3.6,0,0,1,2.508.832A2.838,2.838,0,0,1,20,8.516q0,1.68-2.141,4l-3.047,3.3h5.711Zm2.2-5.7L23.3,5.625h5.828V6.961h-4.6l-.344,3.1a3.671,3.671,0,0,1,1.9-.492A3.138,3.138,0,0,1,28.547,10.6a4.026,4.026,0,0,1,.914,2.777,3.886,3.886,0,0,1-.949,2.77,3.46,3.46,0,0,1-2.652,1.012A3.6,3.6,0,0,1,23.4,16.32a3.337,3.337,0,0,1-1.086-2.312H23.68a2.3,2.3,0,0,0,.7,1.473,2.162,2.162,0,0,0,1.484.5,1.95,1.95,0,0,0,1.582-.687,2.874,2.874,0,0,0,.574-1.9,2.638,2.638,0,0,0-.621-1.832,2.113,2.113,0,0,0-1.652-.691,2.383,2.383,0,0,0-1.484.414l-.383.313Z" transform="translate(706.16 9877.969)" fill="#12263f"/>
    <path id="Trazado_895933" data-name="Trazado 895933" d="M8.078,12.148a6.61,6.61,0,0,1-.867,3.773A3.084,3.084,0,0,1,4.5,17.156a3.107,3.107,0,0,1-2.7-1.207A6.274,6.274,0,0,1,.9,12.344v-1.93a6.463,6.463,0,0,1,.867-3.727A3.108,3.108,0,0,1,4.484,5.469a3.136,3.136,0,0,1,2.7,1.176,6.237,6.237,0,0,1,.891,3.629ZM6.633,10.172A5.3,5.3,0,0,0,6.117,7.5a1.775,1.775,0,0,0-1.633-.84,1.751,1.751,0,0,0-1.617.836,5.171,5.171,0,0,0-.523,2.57v2.313A5.381,5.381,0,0,0,2.879,15.1a1.771,1.771,0,0,0,1.621.879,1.747,1.747,0,0,0,1.59-.828,5.186,5.186,0,0,0,.543-2.609Zm3.4,9.094-.82-.562a3.77,3.77,0,0,0,.766-2.109v-1.3h1.414v1.133A3.559,3.559,0,0,1,11,18,3.7,3.7,0,0,1,10.031,19.266ZM20.523,17H13.07V15.961l3.938-4.375a9.354,9.354,0,0,0,1.207-1.613,2.693,2.693,0,0,0,.332-1.285,2.041,2.041,0,0,0-.539-1.461,1.885,1.885,0,0,0-1.437-.57,2.232,2.232,0,0,0-1.676.613,2.343,2.343,0,0,0-.6,1.707H12.852a3.355,3.355,0,0,1,1.012-2.539,3.751,3.751,0,0,1,2.707-.969,3.6,3.6,0,0,1,2.508.832A2.838,2.838,0,0,1,20,8.516q0,1.68-2.141,4l-3.047,3.3h5.711Zm2.2-5.7L23.3,5.625h5.828V6.961h-4.6l-.344,3.1a3.671,3.671,0,0,1,1.9-.492A3.138,3.138,0,0,1,28.547,10.6a4.026,4.026,0,0,1,.914,2.777,3.886,3.886,0,0,1-.949,2.77,3.46,3.46,0,0,1-2.652,1.012A3.6,3.6,0,0,1,23.4,16.32a3.337,3.337,0,0,1-1.086-2.312H23.68a2.3,2.3,0,0,0,.7,1.473,2.162,2.162,0,0,0,1.484.5,1.95,1.95,0,0,0,1.582-.687,2.874,2.874,0,0,0,.574-1.9,2.638,2.638,0,0,0-.621-1.832,2.113,2.113,0,0,0-1.652-.691,2.383,2.383,0,0,0-1.484.414l-.383.313Z" transform="translate(761.922 9930.969)" fill="#12263f"/>
    <path id="Trazado_895934" data-name="Trazado 895934" d="M8.078,12.148a6.61,6.61,0,0,1-.867,3.773A3.084,3.084,0,0,1,4.5,17.156a3.107,3.107,0,0,1-2.7-1.207A6.274,6.274,0,0,1,.9,12.344v-1.93a6.463,6.463,0,0,1,.867-3.727A3.108,3.108,0,0,1,4.484,5.469a3.136,3.136,0,0,1,2.7,1.176,6.237,6.237,0,0,1,.891,3.629ZM6.633,10.172A5.3,5.3,0,0,0,6.117,7.5a1.775,1.775,0,0,0-1.633-.84,1.751,1.751,0,0,0-1.617.836,5.171,5.171,0,0,0-.523,2.57v2.313A5.381,5.381,0,0,0,2.879,15.1a1.771,1.771,0,0,0,1.621.879,1.747,1.747,0,0,0,1.59-.828,5.186,5.186,0,0,0,.543-2.609Zm3.4,9.094-.82-.562a3.77,3.77,0,0,0,.766-2.109v-1.3h1.414v1.133A3.559,3.559,0,0,1,11,18,3.7,3.7,0,0,1,10.031,19.266ZM20.523,17H13.07V15.961l3.938-4.375a9.354,9.354,0,0,0,1.207-1.613,2.693,2.693,0,0,0,.332-1.285,2.041,2.041,0,0,0-.539-1.461,1.885,1.885,0,0,0-1.437-.57,2.232,2.232,0,0,0-1.676.613,2.343,2.343,0,0,0-.6,1.707H12.852a3.355,3.355,0,0,1,1.012-2.539,3.751,3.751,0,0,1,2.707-.969,3.6,3.6,0,0,1,2.508.832A2.838,2.838,0,0,1,20,8.516q0,1.68-2.141,4l-3.047,3.3h5.711Zm2.2-5.7L23.3,5.625h5.828V6.961h-4.6l-.344,3.1a3.671,3.671,0,0,1,1.9-.492A3.138,3.138,0,0,1,28.547,10.6a4.026,4.026,0,0,1,.914,2.777,3.886,3.886,0,0,1-.949,2.77,3.46,3.46,0,0,1-2.652,1.012A3.6,3.6,0,0,1,23.4,16.32a3.337,3.337,0,0,1-1.086-2.312H23.68a2.3,2.3,0,0,0,.7,1.473,2.162,2.162,0,0,0,1.484.5,1.95,1.95,0,0,0,1.582-.687,2.874,2.874,0,0,0,.574-1.9,2.638,2.638,0,0,0-.621-1.832,2.113,2.113,0,0,0-1.652-.691,2.383,2.383,0,0,0-1.484.414l-.383.313Z" transform="translate(645.711 9926.969)" fill="#12263f"/>
    <path id="Trazado_895941" data-name="Trazado 895941" d="M8.078,12.148a6.61,6.61,0,0,1-.867,3.773A3.084,3.084,0,0,1,4.5,17.156a3.107,3.107,0,0,1-2.7-1.207A6.274,6.274,0,0,1,.9,12.344v-1.93a6.463,6.463,0,0,1,.867-3.727A3.108,3.108,0,0,1,4.484,5.469a3.136,3.136,0,0,1,2.7,1.176,6.237,6.237,0,0,1,.891,3.629ZM6.633,10.172A5.3,5.3,0,0,0,6.117,7.5a1.775,1.775,0,0,0-1.633-.84,1.751,1.751,0,0,0-1.617.836,5.171,5.171,0,0,0-.523,2.57v2.313A5.381,5.381,0,0,0,2.879,15.1a1.771,1.771,0,0,0,1.621.879,1.747,1.747,0,0,0,1.59-.828,5.186,5.186,0,0,0,.543-2.609Zm3.4,9.094-.82-.562a3.77,3.77,0,0,0,.766-2.109v-1.3h1.414v1.133A3.559,3.559,0,0,1,11,18,3.7,3.7,0,0,1,10.031,19.266ZM20.523,17H13.07V15.961l3.938-4.375a9.354,9.354,0,0,0,1.207-1.613,2.693,2.693,0,0,0,.332-1.285,2.041,2.041,0,0,0-.539-1.461,1.885,1.885,0,0,0-1.437-.57,2.232,2.232,0,0,0-1.676.613,2.343,2.343,0,0,0-.6,1.707H12.852a3.355,3.355,0,0,1,1.012-2.539,3.751,3.751,0,0,1,2.707-.969,3.6,3.6,0,0,1,2.508.832A2.838,2.838,0,0,1,20,8.516q0,1.68-2.141,4l-3.047,3.3h5.711Zm2.2-5.7L23.3,5.625h5.828V6.961h-4.6l-.344,3.1a3.671,3.671,0,0,1,1.9-.492A3.138,3.138,0,0,1,28.547,10.6a4.026,4.026,0,0,1,.914,2.777,3.886,3.886,0,0,1-.949,2.77,3.46,3.46,0,0,1-2.652,1.012A3.6,3.6,0,0,1,23.4,16.32a3.337,3.337,0,0,1-1.086-2.312H23.68a2.3,2.3,0,0,0,.7,1.473,2.162,2.162,0,0,0,1.484.5,1.95,1.95,0,0,0,1.582-.687,2.874,2.874,0,0,0,.574-1.9,2.638,2.638,0,0,0-.621-1.832,2.113,2.113,0,0,0-1.652-.691,2.383,2.383,0,0,0-1.484.414l-.383.313Z" transform="translate(545.711 9900.918)" fill="#12263f"/>
    <path id="Trazado_895960" data-name="Trazado 895960" d="M8.078,12.148a6.61,6.61,0,0,1-.867,3.773A3.084,3.084,0,0,1,4.5,17.156a3.107,3.107,0,0,1-2.7-1.207A6.274,6.274,0,0,1,.9,12.344v-1.93a6.463,6.463,0,0,1,.867-3.727A3.108,3.108,0,0,1,4.484,5.469a3.136,3.136,0,0,1,2.7,1.176,6.237,6.237,0,0,1,.891,3.629ZM6.633,10.172A5.3,5.3,0,0,0,6.117,7.5a1.775,1.775,0,0,0-1.633-.84,1.751,1.751,0,0,0-1.617.836,5.171,5.171,0,0,0-.523,2.57v2.313A5.381,5.381,0,0,0,2.879,15.1a1.771,1.771,0,0,0,1.621.879,1.747,1.747,0,0,0,1.59-.828,5.186,5.186,0,0,0,.543-2.609Zm3.4,9.094-.82-.562a3.77,3.77,0,0,0,.766-2.109v-1.3h1.414v1.133A3.559,3.559,0,0,1,11,18,3.7,3.7,0,0,1,10.031,19.266ZM20.523,17H13.07V15.961l3.938-4.375a9.354,9.354,0,0,0,1.207-1.613,2.693,2.693,0,0,0,.332-1.285,2.041,2.041,0,0,0-.539-1.461,1.885,1.885,0,0,0-1.437-.57,2.232,2.232,0,0,0-1.676.613,2.343,2.343,0,0,0-.6,1.707H12.852a3.355,3.355,0,0,1,1.012-2.539,3.751,3.751,0,0,1,2.707-.969,3.6,3.6,0,0,1,2.508.832A2.838,2.838,0,0,1,20,8.516q0,1.68-2.141,4l-3.047,3.3h5.711Zm2.2-5.7L23.3,5.625h5.828V6.961h-4.6l-.344,3.1a3.671,3.671,0,0,1,1.9-.492A3.138,3.138,0,0,1,28.547,10.6a4.026,4.026,0,0,1,.914,2.777,3.886,3.886,0,0,1-.949,2.77,3.46,3.46,0,0,1-2.652,1.012A3.6,3.6,0,0,1,23.4,16.32a3.337,3.337,0,0,1-1.086-2.312H23.68a2.3,2.3,0,0,0,.7,1.473,2.162,2.162,0,0,0,1.484.5,1.95,1.95,0,0,0,1.582-.687,2.874,2.874,0,0,0,.574-1.9,2.638,2.638,0,0,0-.621-1.832,2.113,2.113,0,0,0-1.652-.691,2.383,2.383,0,0,0-1.484.414l-.383.313Z" transform="translate(634.922 9452.229)" fill="#12263f"/>
    <path id="Trazado_895953" data-name="Trazado 895953" d="M8.078,12.148a6.61,6.61,0,0,1-.867,3.773A3.084,3.084,0,0,1,4.5,17.156a3.107,3.107,0,0,1-2.7-1.207A6.274,6.274,0,0,1,.9,12.344v-1.93a6.463,6.463,0,0,1,.867-3.727A3.108,3.108,0,0,1,4.484,5.469a3.136,3.136,0,0,1,2.7,1.176,6.237,6.237,0,0,1,.891,3.629ZM6.633,10.172A5.3,5.3,0,0,0,6.117,7.5a1.775,1.775,0,0,0-1.633-.84,1.751,1.751,0,0,0-1.617.836,5.171,5.171,0,0,0-.523,2.57v2.313A5.381,5.381,0,0,0,2.879,15.1a1.771,1.771,0,0,0,1.621.879,1.747,1.747,0,0,0,1.59-.828,5.186,5.186,0,0,0,.543-2.609Z" transform="translate(583.711 9514.229)" fill="#12263f"/>
    <path id="Trazado_895946" data-name="Trazado 895946" d="M8.078,12.148a6.61,6.61,0,0,1-.867,3.773A3.084,3.084,0,0,1,4.5,17.156a3.107,3.107,0,0,1-2.7-1.207A6.274,6.274,0,0,1,.9,12.344v-1.93a6.463,6.463,0,0,1,.867-3.727A3.108,3.108,0,0,1,4.484,5.469a3.136,3.136,0,0,1,2.7,1.176,6.237,6.237,0,0,1,.891,3.629ZM6.633,10.172A5.3,5.3,0,0,0,6.117,7.5a1.775,1.775,0,0,0-1.633-.84,1.751,1.751,0,0,0-1.617.836,5.171,5.171,0,0,0-.523,2.57v2.313A5.381,5.381,0,0,0,2.879,15.1a1.771,1.771,0,0,0,1.621.879,1.747,1.747,0,0,0,1.59-.828,5.186,5.186,0,0,0,.543-2.609Z" transform="translate(513.711 9567.729)" fill="#12263f"/>
    <path id="Trazado_895945" data-name="Trazado 895945" d="M8.078,12.148a6.61,6.61,0,0,1-.867,3.773A3.084,3.084,0,0,1,4.5,17.156a3.107,3.107,0,0,1-2.7-1.207A6.274,6.274,0,0,1,.9,12.344v-1.93a6.463,6.463,0,0,1,.867-3.727A3.108,3.108,0,0,1,4.484,5.469a3.136,3.136,0,0,1,2.7,1.176,6.237,6.237,0,0,1,.891,3.629ZM6.633,10.172A5.3,5.3,0,0,0,6.117,7.5a1.775,1.775,0,0,0-1.633-.84,1.751,1.751,0,0,0-1.617.836,5.171,5.171,0,0,0-.523,2.57v2.313A5.381,5.381,0,0,0,2.879,15.1a1.771,1.771,0,0,0,1.621.879,1.747,1.747,0,0,0,1.59-.828,5.186,5.186,0,0,0,.543-2.609Z" transform="translate(524.762 9863.229)" fill="#12263f"/>
    <path id="Trazado_895957" data-name="Trazado 895957" d="M8.078,12.148a6.61,6.61,0,0,1-.867,3.773A3.084,3.084,0,0,1,4.5,17.156a3.107,3.107,0,0,1-2.7-1.207A6.274,6.274,0,0,1,.9,12.344v-1.93a6.463,6.463,0,0,1,.867-3.727A3.108,3.108,0,0,1,4.484,5.469a3.136,3.136,0,0,1,2.7,1.176,6.237,6.237,0,0,1,.891,3.629ZM6.633,10.172A5.3,5.3,0,0,0,6.117,7.5a1.775,1.775,0,0,0-1.633-.84,1.751,1.751,0,0,0-1.617.836,5.171,5.171,0,0,0-.523,2.57v2.313A5.381,5.381,0,0,0,2.879,15.1a1.771,1.771,0,0,0,1.621.879,1.747,1.747,0,0,0,1.59-.828,5.186,5.186,0,0,0,.543-2.609Zm3.4,9.094-.82-.562a3.77,3.77,0,0,0,.766-2.109v-1.3h1.414v1.133A3.559,3.559,0,0,1,11,18,3.7,3.7,0,0,1,10.031,19.266Zm5.141-8.656h1.086a2.387,2.387,0,0,0,1.609-.539,1.8,1.8,0,0,0,.586-1.414,1.764,1.764,0,0,0-1.992-2,2.072,2.072,0,0,0-1.5.535,1.873,1.873,0,0,0-.559,1.418H12.961a2.9,2.9,0,0,1,.988-2.246,3.6,3.6,0,0,1,2.512-.895,3.558,3.558,0,0,1,2.523.852A3.076,3.076,0,0,1,19.9,8.688a2.5,2.5,0,0,1-.48,1.438,2.9,2.9,0,0,1-1.309,1.039,2.8,2.8,0,0,1,1.449.984,2.734,2.734,0,0,1,.512,1.68,3.1,3.1,0,0,1-1,2.43,3.745,3.745,0,0,1-2.6.9,3.844,3.844,0,0,1-2.605-.867,2.877,2.877,0,0,1-1-2.289h1.453a1.859,1.859,0,0,0,.586,1.438,2.229,2.229,0,0,0,1.57.539,2.187,2.187,0,0,0,1.6-.547,2.108,2.108,0,0,0,.555-1.57,1.912,1.912,0,0,0-.609-1.523,2.655,2.655,0,0,0-1.758-.547H15.172Z" transform="translate(677.711 9486.729)" fill="#12263f"/>
  </g>
</svg>
