<svg xmlns="http://www.w3.org/2000/svg" xmlns:xlink="http://www.w3.org/1999/xlink" width="1240" height="470" viewBox="0 0 1240 470">
  <defs>
    <clipPath id="clip-path">
      <rect id="Rect치ngulo_404166" data-name="Rect치ngulo 404166" width="1240" height="470" rx="20" transform="translate(1420 4296) rotate(180)" fill="#fff0f1"/>
    </clipPath>
  </defs>
  <g id="Grupo_1113834" data-name="Grupo 1113834" transform="translate(-179.711 -6264)">
    <rect id="Rect치ngulo_377901" data-name="Rect치ngulo 377901" width="1240" height="470" rx="20" transform="translate(1419.711 6734) rotate(180)" fill="#fff0f1"/>
    <g id="Enmascarar_grupo_1098768" data-name="Enmascarar grupo 1098768" transform="translate(-0.289 2438)" opacity="0.6" clip-path="url(#clip-path)">
      <g id="Grupo_1104896" data-name="Grupo 1104896" transform="translate(-96 3692.027)">
        <g id="Grupo_1104895" data-name="Grupo 1104895">
          <path id="Trazado_882818" data-name="Trazado 882818" d="M339,0S847-272,617,0,443,421,495,555,0,555,0,555Z" transform="translate(137.838 123.889)" fill="#ffb6b9" opacity="0.41"/>
          <path id="Trazado_882819" data-name="Trazado 882819" d="M339,0S847-272,617,0,443,421,495,555,0,555,0,555Z" transform="translate(1866.766 604.932) rotate(180)" fill="#ffb6b9" opacity="0.41"/>
          <path id="Trazado_882820" data-name="Trazado 882820" d="M761.761,955.077c-76.355,0-138.475-62.118-138.475-138.473s62.12-138.475,138.475-138.475S900.234,740.249,900.234,816.6,838.116,955.077,761.761,955.077m0-257.264A118.79,118.79,0,1,0,880.55,816.6,118.926,118.926,0,0,0,761.761,697.813" transform="translate(-99.234 -157)" fill="#66494a"/>
          <path id="Trazado_882821" data-name="Trazado 882821" d="M1347.93,459.737c-39.658,14.163-77.107,35.567-104.64,66.422-29.162,32.68-46.148,76.829-39.469,119.458,5.686,36.285,27.879,68.873,56.467,93.1,27.335,23.163,60.259,39.334,94.111,52.309" transform="translate(288.721 -241.932)" fill="none" stroke="#66494a" stroke-linecap="round" stroke-linejoin="round" stroke-width="1" stroke-dasharray="4.968 4.968"/>
          <path id="Trazado_882822" data-name="Trazado 882822" d="M1213,388.449c-107.094,0-194.224-87.129-194.224-194.225S1105.905,0,1213,0s194.225,87.129,194.225,194.224S1320.095,388.449,1213,388.449M1213,34c-88.347,0-160.223,71.876-160.223,160.224S1124.652,354.448,1213,354.448s160.225-71.876,160.225-160.224S1301.348,34,1213,34" transform="translate(23.775 -175)" fill="#ffe2e3"/>
          <path id="Trazado_882824" data-name="Trazado 882824" d="M359.947,721.97a28.838,28.838,0,1,1-28.838-28.838,28.838,28.838,0,0,1,28.838,28.838" transform="translate(-54.109 -527.081)" fill="#66494a"/>
          <path id="Trazado_882825" data-name="Trazado 882825" d="M385.313,158.9c42.344,73.045,125.433,120.913,209.954,120.264C680.624,278.514,763.761,228.4,804.56,153.5" transform="translate(62.721 -113.125)" fill="none" stroke="#66494a" stroke-linecap="round" stroke-linejoin="round" stroke-width="1" stroke-dasharray="5.012 5.012"/>
          <path id="Trazado_882826" data-name="Trazado 882826" d="M6.685,760.459c101.317-68.083,238.368-78.078,346.779-24.7,109.15,53.741,184.844,169.542,191.411,292.1" transform="translate(-41.279 -272.038)" fill="none" stroke="#66494a" stroke-linecap="round" stroke-linejoin="round" stroke-width="1" stroke-dasharray="5.011 5.011"/>
        </g>
      </g>
    </g>
  </g>
</svg>
