<svg xmlns="http://www.w3.org/2000/svg" width="574.804" height="573.779" viewBox="0 0 574.804 573.779">
  <g id="Grupo_1113835" data-name="Grupo 1113835" transform="translate(-532.229 -5161.572)">
    <g id="Trazado_895517" data-name="Trazado 895517" transform="translate(532.229 5161.572)" fill="none">
      <path d="M287.4,0C446.13,0,574.8,128.434,574.8,286.865S446.13,573.729,287.4,573.729,0,445.3,0,286.865,128.674,0,287.4,0Z" stroke="none"/>
      <path d="M 287.4018859863281 2 C 268.0361633300781 2 248.6832580566406 3.94720458984375 229.880615234375 7.78759765625 C 211.5569458007812 11.53021240234375 193.5331726074219 17.1146240234375 176.3099670410156 24.3857421875 C 159.3991088867188 31.52508544921875 143.08837890625 40.3616943359375 127.8309631347656 50.65020751953125 C 112.718017578125 60.8411865234375 98.50637817382812 72.54489135742188 85.5909423828125 85.43624877929688 C 72.675537109375 98.32748413085938 60.949951171875 112.5123901367188 50.73992919921875 127.5969848632812 C 40.43243408203125 142.8256225585938 31.5794677734375 159.10546875 24.4268798828125 175.9843139648438 C 17.14239501953125 193.1747436523438 11.54766845703125 211.1642456054688 7.79815673828125 229.453125 C 3.95074462890625 248.2199096679688 1.99993896484375 267.535888671875 1.99993896484375 286.8646850585938 C 1.99993896484375 306.1934814453125 3.95074462890625 325.5094604492188 7.79815673828125 344.2762451171875 C 11.54766845703125 362.5651245117188 17.14239501953125 380.5545349121094 24.4268798828125 397.7450561523438 C 31.5794677734375 414.6239013671875 40.43243408203125 430.9037475585938 50.73992919921875 446.1323852539062 C 60.949951171875 461.2168884277344 72.675537109375 475.4018249511719 85.5909423828125 488.2931213378906 C 98.50637817382812 501.1843872070312 112.718017578125 512.8881225585938 127.8309631347656 523.0791015625 C 143.08837890625 533.3676147460938 159.3991088867188 542.2042846679688 176.3099670410156 549.3435668945312 C 193.5331726074219 556.61474609375 211.5569458007812 562.1991577148438 229.880615234375 565.9417114257812 C 248.6832580566406 569.7821044921875 268.0361633300781 571.7293090820312 287.4018859863281 571.7293090820312 C 306.7676086425781 571.7293090820312 326.1205444335938 569.7821044921875 344.9231567382812 565.9417114257812 C 363.246826171875 562.1991577148438 381.2705993652344 556.61474609375 398.4938354492188 549.3435668945312 C 415.4046630859375 542.2042846679688 431.7153930664062 533.3676147460938 446.9728088378906 523.0791015625 C 462.0857543945312 512.8881225585938 476.2973022460938 501.1843872070312 489.2128295898438 488.2931213378906 C 502.128173828125 475.4018249511719 513.853759765625 461.2168884277344 524.063720703125 446.1323852539062 C 534.3712158203125 430.9037475585938 543.2242431640625 414.6239013671875 550.3768310546875 397.7450561523438 C 557.661376953125 380.5545349121094 563.2560424804688 362.5651245117188 567.0055541992188 344.2762451171875 C 570.8529663085938 325.5094604492188 572.8037719726562 306.1934814453125 572.8037719726562 286.8646850585938 C 572.8037719726562 267.535888671875 570.8529663085938 248.2199096679688 567.0055541992188 229.453125 C 563.2560424804688 211.1642456054688 557.661376953125 193.1747436523438 550.3768310546875 175.9843139648438 C 543.2242431640625 159.10546875 534.3712158203125 142.8256225585938 524.063720703125 127.5969848632812 C 513.853759765625 112.5123901367188 502.128173828125 98.32748413085938 489.2128295898438 85.43624877929688 C 476.2973022460938 72.54489135742188 462.0857543945312 60.8411865234375 446.9728088378906 50.65020751953125 C 431.7153930664062 40.3616943359375 415.4046630859375 31.52508544921875 398.4938354492188 24.3857421875 C 381.2705993652344 17.1146240234375 363.246826171875 11.53021240234375 344.9231567382812 7.78759765625 C 326.1205444335938 3.94720458984375 306.7676086425781 2 287.4018859863281 2 M 287.4018859863281 0 C 446.1295166015625 0 574.8037719726562 128.4336853027344 574.8037719726562 286.8646850585938 C 574.8037719726562 445.2956848144531 446.1295166015625 573.7293090820312 287.4018859863281 573.7293090820312 C 128.6742553710938 573.7293090820312 -6.103515625e-05 445.2956848144531 -6.103515625e-05 286.8646850585938 C -6.103515625e-05 128.4336853027344 128.6742553710938 0 287.4018859863281 0 Z" stroke="none" fill="#707070"/>
    </g>
    <path id="Trazado_895492" data-name="Trazado 895492" d="M-9577.308-6428.359-9234.283-6350s-71.57,260.177-68.629,354.344" transform="translate(10151.107 11729.217)" fill="none" stroke="#0d5f43" stroke-width="1"/>
    <path id="Trazado_895493" data-name="Trazado 895493" d="M-9333.842-5996.174s16.412-163.59,67.909-326.57c-58.289-14.147-327.657-75.265-327.657-75.265" transform="translate(10149.896 11731.476)" fill="none" stroke="#b0c0d2" stroke-width="1"/>
    <path id="Trazado_895494" data-name="Trazado 895494" d="M-9333.016-6028.06s13.05-122.154,59.938-276.7c1.8-5.935,3.7-12.083,5.661-18.276-58.289-14.147-306.221-71.068-306.221-71.068" transform="translate(10119.148 11760.775)" fill="none" stroke="#ffb6b9" stroke-width="1"/>
    <path id="Trazado_895495" data-name="Trazado 895495" d="M-9331.985-6063.1s10.334-87.48,57.222-242.025c1.8-5.935,3.7-12.083,5.661-18.276-58.289-14.147-281.877-65.847-281.877-65.847" transform="translate(10088.733 11790.145)" fill="none" stroke="#7000d2" stroke-width="1"/>
    <path id="Trazado_895496" data-name="Trazado 895496" d="M-9329.508-6101.141s5.829-49.693,52.717-204.238c1.8-5.935,3.7-12.083,5.661-18.276-58.289-14.147-252.594-62.113-252.594-62.113" transform="translate(10057.455 11820.486)" fill="none" stroke="#000" stroke-width="1"/>
    <path id="Trazado_895497" data-name="Trazado 895497" d="M-9325.3-6140.142s-.688-11.378,46.2-165.923c1.8-5.935,3.7-12.083,5.661-18.276-58.289-14.147-219.287-52.208-219.287-52.208" transform="translate(10026.455 11849.107)" fill="none" stroke="#169f70" stroke-width="1"/>
    <path id="Trazado_895498" data-name="Trazado 895498" d="M-9320.947-6182.464c9.814-31.047-7.629,30.355,39.259-124.189,1.8-5.935,3.7-12.083,5.661-18.276-58.289-14.147-181.875-43.713-181.875-43.713" transform="translate(9997.661 11878.704)" fill="none" stroke="#e8624e" stroke-width="1"/>
    <path id="Trazado_895910" data-name="Trazado 895910" d="M7.047,13.18H8.625v1.18H7.047V17H5.594V14.359H.414v-.852L5.508,5.625H7.047Zm-4.992,0H5.594V7.6l-.172.313ZM15.6,5.617V6.844h-.266a3.805,3.805,0,0,0-2.687,1,4.161,4.161,0,0,0-1.156,2.727,3.085,3.085,0,0,1,2.453-1.031,2.95,2.95,0,0,1,2.371,1.047,4.038,4.038,0,0,1,.887,2.7,4.025,4.025,0,0,1-.957,2.813,3.3,3.3,0,0,1-2.566,1.055A3.247,3.247,0,0,1,11.031,15.9a4.97,4.97,0,0,1-1.016-3.23v-.555a7.488,7.488,0,0,1,1.34-4.8,4.921,4.921,0,0,1,3.988-1.7Zm-1.9,5.125A2.429,2.429,0,0,0,11.469,12.3v.531A3.731,3.731,0,0,0,12.1,15.1a1.9,1.9,0,0,0,1.578.859,1.838,1.838,0,0,0,1.535-.719,2.982,2.982,0,0,0,.559-1.883,2.983,2.983,0,0,0-.566-1.895A1.816,1.816,0,0,0,13.7,10.742Z" transform="translate(680.555 5304.326)" fill="#0d5f43"/>
    <path id="Trazado_895911" data-name="Trazado 895911" d="M7.047,13.18H8.625v1.18H7.047V17H5.594V14.359H.414v-.852L5.508,5.625H7.047Zm-4.992,0H5.594V7.6l-.172.313Zm13.977,0h1.578v1.18H16.031V17H14.578V14.359H9.4v-.852l5.094-7.883h1.539Zm-4.992,0h3.539V7.6l-.172.313Z" transform="translate(675.183 5340.855)" fill="#727997"/>
    <path id="Trazado_895912" data-name="Trazado 895912" d="M7.047,13.18H8.625v1.18H7.047V17H5.594V14.359H.414v-.852L5.508,5.625H7.047Zm-4.992,0H5.594V7.6l-.172.313ZM17.383,17H9.93V15.961l3.938-4.375a9.355,9.355,0,0,0,1.207-1.613,2.693,2.693,0,0,0,.332-1.285,2.041,2.041,0,0,0-.539-1.461,1.885,1.885,0,0,0-1.437-.57,2.232,2.232,0,0,0-1.676.613,2.343,2.343,0,0,0-.6,1.707H9.711a3.355,3.355,0,0,1,1.012-2.539,3.751,3.751,0,0,1,2.707-.969,3.6,3.6,0,0,1,2.508.832,2.838,2.838,0,0,1,.922,2.215q0,1.68-2.141,4l-3.047,3.3h5.711Z" transform="translate(663.364 5373.087)" fill="#ffb6b9"/>
    <path id="Trazado_895913" data-name="Trazado 895913" d="M7.047,13.18H8.625v1.18H7.047V17H5.594V14.359H.414v-.852L5.508,5.625H7.047Zm-4.992,0H5.594V7.6l-.172.313Zm15.008-1.031a6.61,6.61,0,0,1-.867,3.773,3.084,3.084,0,0,1-2.711,1.234,3.107,3.107,0,0,1-2.7-1.207,6.274,6.274,0,0,1-.906-3.605v-1.93a6.463,6.463,0,0,1,.867-3.727,3.108,3.108,0,0,1,2.719-1.219,3.136,3.136,0,0,1,2.7,1.176,6.237,6.237,0,0,1,.891,3.629Zm-1.445-1.977A5.3,5.3,0,0,0,15.1,7.5a1.775,1.775,0,0,0-1.633-.84,1.751,1.751,0,0,0-1.617.836,5.171,5.171,0,0,0-.523,2.57v2.313a5.381,5.381,0,0,0,.535,2.723,1.771,1.771,0,0,0,1.621.879,1.747,1.747,0,0,0,1.59-.828,5.186,5.186,0,0,0,.543-2.609Z" transform="translate(652.62 5408.542)" fill="#7000d2"/>
    <path id="Trazado_895914" data-name="Trazado 895914" d="M58.768,11.742h-4.93v4.031h5.727V17H52.338V5.625h7.148V6.859H53.838v3.656h4.93Zm3.93-3.2v9.43q0,2.438-2.211,2.438a2.682,2.682,0,0,1-.883-.141V19.117a2.794,2.794,0,0,0,.656.063A.982.982,0,0,0,61,18.918a1.294,1.294,0,0,0,.254-.91V8.547ZM61.1,6.3a.867.867,0,0,1,.215-.59.79.79,0,0,1,.629-.246.819.819,0,0,1,.641.242.854.854,0,0,1,.219.594.826.826,0,0,1-.219.586.834.834,0,0,1-.641.234.808.808,0,0,1-.633-.234A.843.843,0,0,1,61.1,6.3Zm7.43,10.852a3.693,3.693,0,0,1-2.8-1.129,4.19,4.19,0,0,1-1.078-3.02v-.266a5.073,5.073,0,0,1,.48-2.246,3.748,3.748,0,0,1,1.344-1.547,3.378,3.378,0,0,1,1.871-.559,3.166,3.166,0,0,1,2.563,1.086,4.7,4.7,0,0,1,.914,3.109v.6H66.1a3,3,0,0,0,.73,2.02,2.3,2.3,0,0,0,1.777.77,2.517,2.517,0,0,0,1.3-.312,3.259,3.259,0,0,0,.93-.828l.883.688A3.55,3.55,0,0,1,68.533,17.156Zm-.18-7.578a1.928,1.928,0,0,0-1.469.637A3.1,3.1,0,0,0,66.15,12h4.234v-.109a2.753,2.753,0,0,0-.594-1.707A1.815,1.815,0,0,0,68.354,9.578Zm6.508-1.031.039.938a3.122,3.122,0,0,1,2.508-1.094A2.417,2.417,0,0,1,79.822,9.75a3.2,3.2,0,0,1,1.1-.984,3.242,3.242,0,0,1,1.6-.375q2.781,0,2.828,2.945V17H83.9V11.422a1.941,1.941,0,0,0-.414-1.355A1.823,1.823,0,0,0,82.1,9.617a1.916,1.916,0,0,0-1.336.48,1.949,1.949,0,0,0-.617,1.293V17H78.69V11.461a1.613,1.613,0,0,0-1.8-1.844,1.934,1.934,0,0,0-1.945,1.211V17H73.494V8.547Zm19.8,4.32a5.062,5.062,0,0,1-.883,3.109,2.829,2.829,0,0,1-2.391,1.18,3.1,3.1,0,0,1-2.422-.977v4.07H87.525V8.547h1.32l.07.938a2.977,2.977,0,0,1,2.453-1.094,2.882,2.882,0,0,1,2.41,1.148,5.117,5.117,0,0,1,.887,3.2ZM93.221,12.7a3.735,3.735,0,0,0-.609-2.258,1.963,1.963,0,0,0-1.672-.828,2.125,2.125,0,0,0-1.969,1.164V14.82a2.129,2.129,0,0,0,1.984,1.156,1.954,1.954,0,0,0,1.652-.824A4.077,4.077,0,0,0,93.221,12.7ZM98.072,17H96.627V5h1.445ZM100,12.7a4.993,4.993,0,0,1,.488-2.234A3.643,3.643,0,0,1,101.85,8.93a3.7,3.7,0,0,1,1.988-.539,3.565,3.565,0,0,1,2.793,1.2,4.6,4.6,0,0,1,1.066,3.18v.1a5.036,5.036,0,0,1-.473,2.215,3.589,3.589,0,0,1-1.352,1.527,3.743,3.743,0,0,1-2.02.547,3.556,3.556,0,0,1-2.785-1.2A4.575,4.575,0,0,1,100,12.8Zm1.453.172a3.616,3.616,0,0,0,.652,2.258,2.211,2.211,0,0,0,3.5-.012,3.955,3.955,0,0,0,.648-2.418,3.61,3.61,0,0,0-.66-2.254,2.1,2.1,0,0,0-1.754-.863,2.075,2.075,0,0,0-1.727.852A3.925,3.925,0,0,0,101.455,12.867Zm8.008,3.375a.905.905,0,0,1,.223-.625.848.848,0,0,1,.668-.25.874.874,0,0,1,.676.25.887.887,0,0,1,.23.625.839.839,0,0,1-.23.6.89.89,0,0,1-.676.242.8.8,0,0,1-.891-.844Zm.008-6.9a.905.905,0,0,1,.223-.625.848.848,0,0,1,.668-.25.874.874,0,0,1,.676.25.887.887,0,0,1,.23.625.839.839,0,0,1-.23.6.89.89,0,0,1-.676.242.8.8,0,0,1-.891-.844ZM11.4,36.547V41H9.9V29.625h4.2a4.215,4.215,0,0,1,2.926.953A3.231,3.231,0,0,1,18.076,33.1a3.189,3.189,0,0,1-1.035,2.551,4.4,4.4,0,0,1-2.965.895Zm0-1.227h2.7a2.7,2.7,0,0,0,1.844-.566,2.069,2.069,0,0,0,.641-1.637,2.138,2.138,0,0,0-.641-1.625,2.528,2.528,0,0,0-1.758-.633H11.4Zm13.586,4.844a3.07,3.07,0,0,1-2.477.992,2.628,2.628,0,0,1-2.059-.785,3.4,3.4,0,0,1-.715-2.324v-5.5h1.445v5.461q0,1.922,1.563,1.922a2.163,2.163,0,0,0,2.2-1.234V32.547h1.445V41H25.014Zm4.969-7.617L30,33.609a3.08,3.08,0,0,1,2.531-1.219q2.68,0,2.7,3.023V41H33.787V35.406a1.946,1.946,0,0,0-.418-1.352,1.675,1.675,0,0,0-1.277-.437,2.086,2.086,0,0,0-1.234.375,2.546,2.546,0,0,0-.828.984V41H28.584V32.547ZM39.373,30.5v2.047h1.578v1.117H39.373v5.242a1.171,1.171,0,0,0,.211.762.888.888,0,0,0,.719.254,3.5,3.5,0,0,0,.688-.094V41a4.19,4.19,0,0,1-1.109.156,1.8,1.8,0,0,1-1.461-.586,2.517,2.517,0,0,1-.492-1.664V33.664H36.389V32.547h1.539V30.5ZM42.1,36.7a4.993,4.993,0,0,1,.488-2.234,3.643,3.643,0,0,1,1.359-1.531,3.7,3.7,0,0,1,1.988-.539,3.565,3.565,0,0,1,2.793,1.2,4.6,4.6,0,0,1,1.066,3.18v.1a5.036,5.036,0,0,1-.473,2.215,3.589,3.589,0,0,1-1.352,1.527,3.743,3.743,0,0,1-2.02.547,3.556,3.556,0,0,1-2.785-1.2A4.575,4.575,0,0,1,42.1,36.8Zm1.453.172a3.616,3.616,0,0,0,.652,2.258,2.211,2.211,0,0,0,3.5-.012A3.955,3.955,0,0,0,48.35,36.7a3.61,3.61,0,0,0-.66-2.254,2.1,2.1,0,0,0-1.754-.863,2.075,2.075,0,0,0-1.727.852A3.925,3.925,0,0,0,43.553,36.867Zm13.461-3.3a3.073,3.073,0,0,1,2.5-1.18q2.68,0,2.7,3.023V41H60.772V35.406a1.946,1.946,0,0,0-.418-1.352,1.675,1.675,0,0,0-1.277-.437,2.086,2.086,0,0,0-1.234.375,2.546,2.546,0,0,0-.828.984V41H55.568V29h1.445ZM64,36.7a4.993,4.993,0,0,1,.488-2.234,3.643,3.643,0,0,1,1.359-1.531,3.7,3.7,0,0,1,1.988-.539,3.565,3.565,0,0,1,2.793,1.2,4.6,4.6,0,0,1,1.066,3.18v.1a5.036,5.036,0,0,1-.473,2.215,3.589,3.589,0,0,1-1.352,1.527,3.743,3.743,0,0,1-2.02.547,3.556,3.556,0,0,1-2.785-1.2A4.575,4.575,0,0,1,64,36.8Zm1.453.172a3.616,3.616,0,0,0,.652,2.258,2.211,2.211,0,0,0,3.5-.012,3.955,3.955,0,0,0,.648-2.418,3.61,3.61,0,0,0-.66-2.254,2.1,2.1,0,0,0-1.754-.863,2.075,2.075,0,0,0-1.727.852A3.925,3.925,0,0,0,65.451,36.867Zm9.414-4.32.039.938a3.122,3.122,0,0,1,2.508-1.094,2.417,2.417,0,0,1,2.414,1.359,3.2,3.2,0,0,1,1.1-.984,3.242,3.242,0,0,1,1.6-.375q2.781,0,2.828,2.945V41H83.9V35.422a1.941,1.941,0,0,0-.414-1.355,1.823,1.823,0,0,0-1.391-.449,1.916,1.916,0,0,0-1.336.48,1.949,1.949,0,0,0-.617,1.293V41H78.693V35.461a1.613,1.613,0,0,0-1.8-1.844,1.934,1.934,0,0,0-1.945,1.211V41H73.5V32.547Zm19.82,4.32a5.026,5.026,0,0,1-.891,3.113A2.846,2.846,0,0,1,91.4,41.156a2.947,2.947,0,0,1-2.477-1.133l-.07.977H87.529V29h1.445v4.477a2.93,2.93,0,0,1,2.414-1.086,2.863,2.863,0,0,1,2.418,1.164,5.177,5.177,0,0,1,.879,3.188ZM93.24,36.7a3.906,3.906,0,0,0-.57-2.281,1.888,1.888,0,0,0-1.641-.8,2.122,2.122,0,0,0-2.055,1.328V38.6a2.181,2.181,0,0,0,2.07,1.328,1.878,1.878,0,0,0,1.617-.8A4.153,4.153,0,0,0,93.24,36.7Zm7.352-2.859a4.331,4.331,0,0,0-.711-.055A1.9,1.9,0,0,0,97.951,35v6H96.506V32.547h1.406l.023.977a2.251,2.251,0,0,1,2.016-1.133,1.477,1.477,0,0,1,.641.109Zm.789,2.852a4.993,4.993,0,0,1,.488-2.234,3.643,3.643,0,0,1,1.359-1.531,3.7,3.7,0,0,1,1.988-.539,3.565,3.565,0,0,1,2.793,1.2,4.6,4.6,0,0,1,1.066,3.18v.1a5.036,5.036,0,0,1-.473,2.215,3.589,3.589,0,0,1-1.352,1.527,3.743,3.743,0,0,1-2.02.547,3.556,3.556,0,0,1-2.785-1.2,4.575,4.575,0,0,1-1.066-3.164Zm1.453.172a3.616,3.616,0,0,0,.652,2.258,2.211,2.211,0,0,0,3.5-.012,3.955,3.955,0,0,0,.648-2.418,3.61,3.61,0,0,0-.66-2.254,2.1,2.1,0,0,0-1.754-.863,2.075,2.075,0,0,0-1.727.852A3.925,3.925,0,0,0,102.834,36.867Zm14.852-1.234,1.875-3.086h1.688l-2.766,4.18L121.334,41h-1.672l-1.953-3.164L115.756,41h-1.68l2.852-4.273-2.766-4.18h1.672Zm13.977,3.125a1.064,1.064,0,0,0-.441-.91,4.249,4.249,0,0,0-1.539-.559,7.276,7.276,0,0,1-1.742-.562,2.479,2.479,0,0,1-.953-.781,1.869,1.869,0,0,1-.309-1.078,2.193,2.193,0,0,1,.879-1.758,3.432,3.432,0,0,1,2.246-.719,3.532,3.532,0,0,1,2.332.742,2.357,2.357,0,0,1,.895,1.9h-1.453a1.3,1.3,0,0,0-.5-1.023,1.888,1.888,0,0,0-1.27-.43,1.976,1.976,0,0,0-1.234.344,1.082,1.082,0,0,0-.445.9.877.877,0,0,0,.414.789,5.1,5.1,0,0,0,1.5.508,7.8,7.8,0,0,1,1.754.578,2.558,2.558,0,0,1,1,.809,1.988,1.988,0,0,1,.324,1.152,2.163,2.163,0,0,1-.906,1.816,3.8,3.8,0,0,1-2.352.684,4.257,4.257,0,0,1-1.8-.359,2.922,2.922,0,0,1-1.223-1,2.42,2.42,0,0,1-.441-1.395h1.445a1.5,1.5,0,0,0,.582,1.152,2.258,2.258,0,0,0,1.434.426,2.331,2.331,0,0,0,1.316-.332A1.02,1.02,0,0,0,131.662,38.758Zm4.9,2.242h-1.445V32.547h1.445ZM135,30.3a.863.863,0,0,1,.215-.594.807.807,0,0,1,.637-.242.819.819,0,0,1,.641.242.854.854,0,0,1,.219.594.826.826,0,0,1-.219.586.834.834,0,0,1-.641.234.821.821,0,0,1-.637-.234A.834.834,0,0,1,135,30.3Zm8.8,8.453a1.064,1.064,0,0,0-.441-.91,4.249,4.249,0,0,0-1.539-.559,7.277,7.277,0,0,1-1.742-.562,2.479,2.479,0,0,1-.953-.781,1.869,1.869,0,0,1-.309-1.078,2.193,2.193,0,0,1,.879-1.758,3.432,3.432,0,0,1,2.246-.719,3.532,3.532,0,0,1,2.332.742,2.357,2.357,0,0,1,.895,1.9h-1.453a1.3,1.3,0,0,0-.5-1.023,1.888,1.888,0,0,0-1.27-.43,1.976,1.976,0,0,0-1.234.344,1.082,1.082,0,0,0-.445.9.877.877,0,0,0,.414.789,5.1,5.1,0,0,0,1.5.508,7.8,7.8,0,0,1,1.754.578,2.558,2.558,0,0,1,1,.809,1.988,1.988,0,0,1,.324,1.152,2.163,2.163,0,0,1-.906,1.816,3.8,3.8,0,0,1-2.352.684,4.257,4.257,0,0,1-1.8-.359,2.922,2.922,0,0,1-1.223-1,2.42,2.42,0,0,1-.441-1.395h1.445a1.5,1.5,0,0,0,.582,1.152,2.258,2.258,0,0,0,1.434.426,2.331,2.331,0,0,0,1.316-.332A1.02,1.02,0,0,0,143.795,38.758ZM152.342,41a3.036,3.036,0,0,1-.2-.891,3.225,3.225,0,0,1-2.406,1.047,2.984,2.984,0,0,1-2.051-.707,2.287,2.287,0,0,1-.8-1.793,2.39,2.39,0,0,1,1-2.051,4.733,4.733,0,0,1,2.824-.73h1.406v-.664A1.623,1.623,0,0,0,151.662,34a1.821,1.821,0,0,0-1.336-.449,2.107,2.107,0,0,0-1.3.391,1.151,1.151,0,0,0-.523.945h-1.453a2,2,0,0,1,.449-1.223,3.066,3.066,0,0,1,1.219-.934,4.1,4.1,0,0,1,1.691-.344,3.342,3.342,0,0,1,2.289.73,2.635,2.635,0,0,1,.859,2.012v3.891a4.757,4.757,0,0,0,.3,1.852V41Zm-2.4-1.1a2.54,2.54,0,0,0,1.289-.352,2.127,2.127,0,0,0,.883-.914V36.9h-1.133q-2.656,0-2.656,1.555a1.316,1.316,0,0,0,.453,1.063A1.742,1.742,0,0,0,149.943,39.9Z" transform="translate(826.925 5263.762)" fill="#12263f"/>
    <path id="Trazado_895915" data-name="Trazado 895915" d="M.017-7.454l2.9-4.632H4.79L.971-6.093,4.881,0H2.988L.017-4.715-2.972,0H-4.856L-.938-6.093l-3.827-5.993H-2.9Z" transform="translate(1029.304 5531.929)" fill="#8b3a2e"/>
    <path id="Trazado_895916" data-name="Trazado 895916" d="M-.017-6.018l3.154-6.068h1.81L.78-4.507V0H-.813V-4.507L-4.98-12.086h1.826Z" transform="translate(773.907 5214.981)" fill="#8b3a2e"/>
    <path id="Trazado_895917" data-name="Trazado 895917" d="M3.047,10.609H4.133a2.387,2.387,0,0,0,1.609-.539,1.8,1.8,0,0,0,.586-1.414,1.764,1.764,0,0,0-1.992-2,2.072,2.072,0,0,0-1.5.535,1.873,1.873,0,0,0-.559,1.418H.836a2.9,2.9,0,0,1,.988-2.246,3.6,3.6,0,0,1,2.512-.895,3.558,3.558,0,0,1,2.523.852,3.076,3.076,0,0,1,.914,2.367,2.5,2.5,0,0,1-.48,1.438,2.9,2.9,0,0,1-1.309,1.039,2.8,2.8,0,0,1,1.449.984,2.734,2.734,0,0,1,.512,1.68,3.1,3.1,0,0,1-1,2.43,3.745,3.745,0,0,1-2.6.9,3.844,3.844,0,0,1-2.605-.867A2.877,2.877,0,0,1,.734,14H2.188a1.859,1.859,0,0,0,.586,1.438,2.229,2.229,0,0,0,1.57.539,2.187,2.187,0,0,0,1.6-.547,2.108,2.108,0,0,0,.555-1.57,1.912,1.912,0,0,0-.609-1.523,2.655,2.655,0,0,0-1.758-.547H3.047ZM16.828,8.594a2.641,2.641,0,0,1-.449,1.516,3.057,3.057,0,0,1-1.215,1.039,3.26,3.26,0,0,1,1.41,1.117,2.811,2.811,0,0,1,.52,1.664,2.972,2.972,0,0,1-1,2.352,3.827,3.827,0,0,1-2.621.875,3.81,3.81,0,0,1-2.629-.879,2.986,2.986,0,0,1-.988-2.348,2.9,2.9,0,0,1,.5-1.664,3.136,3.136,0,0,1,1.395-1.125,2.981,2.981,0,0,1-1.2-1.039,2.679,2.679,0,0,1-.437-1.508,2.94,2.94,0,0,1,.922-2.281,3.458,3.458,0,0,1,2.43-.844,3.461,3.461,0,0,1,2.426.844A2.934,2.934,0,0,1,16.828,8.594Zm-1.18,5.3a2.1,2.1,0,0,0-.605-1.555,2.147,2.147,0,0,0-1.582-.6A2.034,2.034,0,0,0,11.3,13.9a2.019,2.019,0,0,0,.574,1.523,2.2,2.2,0,0,0,1.6.555,2.2,2.2,0,0,0,1.594-.559A2.014,2.014,0,0,0,15.648,13.9ZM13.477,6.656a1.865,1.865,0,0,0-1.379.527,1.937,1.937,0,0,0-.527,1.434,1.928,1.928,0,0,0,.52,1.4,1.844,1.844,0,0,0,1.387.535,1.844,1.844,0,0,0,1.387-.535,1.928,1.928,0,0,0,.52-1.4A1.929,1.929,0,0,0,14.844,7.2,1.839,1.839,0,0,0,13.477,6.656Z" transform="translate(644.024 5443.998)"/>
    <path id="Trazado_895918" data-name="Trazado 895918" d="M3.047,10.609H4.133a2.387,2.387,0,0,0,1.609-.539,1.8,1.8,0,0,0,.586-1.414,1.764,1.764,0,0,0-1.992-2,2.072,2.072,0,0,0-1.5.535,1.873,1.873,0,0,0-.559,1.418H.836a2.9,2.9,0,0,1,.988-2.246,3.6,3.6,0,0,1,2.512-.895,3.558,3.558,0,0,1,2.523.852,3.076,3.076,0,0,1,.914,2.367,2.5,2.5,0,0,1-.48,1.438,2.9,2.9,0,0,1-1.309,1.039,2.8,2.8,0,0,1,1.449.984,2.734,2.734,0,0,1,.512,1.68,3.1,3.1,0,0,1-1,2.43,3.745,3.745,0,0,1-2.6.9,3.844,3.844,0,0,1-2.605-.867A2.877,2.877,0,0,1,.734,14H2.188a1.859,1.859,0,0,0,.586,1.438,2.229,2.229,0,0,0,1.57.539,2.187,2.187,0,0,0,1.6-.547,2.108,2.108,0,0,0,.555-1.57,1.912,1.912,0,0,0-.609-1.523,2.655,2.655,0,0,0-1.758-.547H3.047ZM15.6,5.617V6.844h-.266a3.805,3.805,0,0,0-2.687,1,4.161,4.161,0,0,0-1.156,2.727,3.085,3.085,0,0,1,2.453-1.031,2.95,2.95,0,0,1,2.371,1.047,4.038,4.038,0,0,1,.887,2.7,4.025,4.025,0,0,1-.957,2.813,3.3,3.3,0,0,1-2.566,1.055A3.247,3.247,0,0,1,11.031,15.9a4.97,4.97,0,0,1-1.016-3.23v-.555a7.488,7.488,0,0,1,1.34-4.8,4.921,4.921,0,0,1,3.988-1.7Zm-1.9,5.125A2.429,2.429,0,0,0,11.469,12.3v.531A3.731,3.731,0,0,0,12.1,15.1a1.9,1.9,0,0,0,1.578.859,1.838,1.838,0,0,0,1.535-.719,2.982,2.982,0,0,0,.559-1.883,2.983,2.983,0,0,0-.566-1.895A1.816,1.816,0,0,0,13.7,10.742Z" transform="translate(636.504 5478.378)" fill="#169f70"/>
    <path id="Trazado_895919" data-name="Trazado 895919" d="M3.047,10.609H4.133a2.387,2.387,0,0,0,1.609-.539,1.8,1.8,0,0,0,.586-1.414,1.764,1.764,0,0,0-1.992-2,2.072,2.072,0,0,0-1.5.535,1.873,1.873,0,0,0-.559,1.418H.836a2.9,2.9,0,0,1,.988-2.246,3.6,3.6,0,0,1,2.512-.895,3.558,3.558,0,0,1,2.523.852,3.076,3.076,0,0,1,.914,2.367,2.5,2.5,0,0,1-.48,1.438,2.9,2.9,0,0,1-1.309,1.039,2.8,2.8,0,0,1,1.449.984,2.734,2.734,0,0,1,.512,1.68,3.1,3.1,0,0,1-1,2.43,3.745,3.745,0,0,1-2.6.9,3.844,3.844,0,0,1-2.605-.867A2.877,2.877,0,0,1,.734,14H2.188a1.859,1.859,0,0,0,.586,1.438,2.229,2.229,0,0,0,1.57.539,2.187,2.187,0,0,0,1.6-.547,2.108,2.108,0,0,0,.555-1.57,1.912,1.912,0,0,0-.609-1.523,2.655,2.655,0,0,0-1.758-.547H3.047Zm12.984,2.57h1.578v1.18H16.031V17H14.578V14.359H9.4v-.852l5.094-7.883h1.539Zm-4.992,0h3.539V7.6l-.172.313Z" transform="translate(627.909 5514.908)" fill="#e57261"/>
    <path id="Trazado_895920" data-name="Trazado 895920" d="M4.835,0A4.835,4.835,0,1,1,0,4.835,4.835,4.835,0,0,1,4.835,0Z" transform="translate(717.025 5550.505)" fill="#e8624e"/>
    <path id="Trazado_895921" data-name="Trazado 895921" d="M4.835,0A4.835,4.835,0,1,1,0,4.835,4.835,4.835,0,0,1,4.835,0Z" transform="translate(748.183 5521.496)" fill="#e8624e"/>
    <path id="Trazado_895922" data-name="Trazado 895922" d="M4.835,0A4.835,4.835,0,1,1,0,4.835,4.835,4.835,0,0,1,4.835,0Z" transform="translate(781.489 5491.413)" fill="#e8624e"/>
    <path id="Trazado_895923" data-name="Trazado 895923" d="M4.835,0A4.835,4.835,0,1,1,0,4.835,4.835,4.835,0,0,1,4.835,0Z" transform="translate(813.721 5462.404)" fill="#e8624e"/>
    <path id="Trazado_895924" data-name="Trazado 895924" d="M4.835,0A4.835,4.835,0,1,1,0,4.835,4.835,4.835,0,0,1,4.835,0Z" transform="translate(847.027 5432.321)" fill="#e8624e"/>
    <path id="Trazado_895925" data-name="Trazado 895925" d="M4.835,0A4.835,4.835,0,1,1,0,4.835,4.835,4.835,0,0,1,4.835,0Z" transform="translate(879.26 5403.312)" fill="#e8624e"/>
    <path id="Trazado_895926" data-name="Trazado 895926" d="M4.835,0A4.835,4.835,0,1,1,0,4.835,4.835,4.835,0,0,1,4.835,0Z" transform="translate(911.989 5374.303)" fill="#e8624e"/>
    <path id="Trazado_895499" data-name="Trazado 895499" d="M-8914.711-6383.295h397.276" transform="translate(9543.946 11880.422)" fill="none" stroke="#e8624e" stroke-width="2"/>
    <path id="Trazado_895500" data-name="Trazado 895500" d="M0,0H397.276" transform="translate(786.699 5588.612) rotate(-90)" fill="none" stroke="#e8624e" stroke-width="2"/>
    <path id="Trazado_895927" data-name="Trazado 895927" d="M9.67,0l9.67,19.339H0Z" transform="translate(1045.791 5487.774) rotate(90)" fill="#e8624e"/>
    <path id="Trazado_895928" data-name="Trazado 895928" d="M9.67,0l9.67,19.339H0Z" transform="translate(777.347 5172.056)" fill="#e8624e"/>
    <g id="Trazado_895929" data-name="Trazado 895929" transform="translate(722.397 5378.186)" fill="none">
      <path d="M0,0H195.541V177.276H0Z" stroke="none"/>
      <path d="M 0.9999847412109375 0.9999847412109375 L 0.9999847412109375 176.2759094238281 L 194.5407104492188 176.2759094238281 L 194.5407104492188 0.9999847412109375 L 0.9999847412109375 0.9999847412109375 M -1.52587890625e-05 -1.52587890625e-05 L 195.5407104492188 -1.52587890625e-05 L 195.5407104492188 177.2759094238281 L -1.52587890625e-05 177.2759094238281 L -1.52587890625e-05 -1.52587890625e-05 Z" stroke="none" fill="#e8624e"/>
    </g>
    <path id="Trazado_895501" data-name="Trazado 895501" d="M-8828-6466.468h194.426" transform="translate(9550.397 11874.234)" fill="none" stroke="#e8624e" stroke-width="1"/>
    <path id="Trazado_895512" data-name="Trazado 895512" d="M0,0H177.276" transform="translate(754.072 5378.186) rotate(90)" fill="none" stroke="#e8624e" stroke-width="1"/>
    <path id="Trazado_895513" data-name="Trazado 895513" d="M0,0H177.276" transform="translate(786.846 5378.186) rotate(90)" fill="none" stroke="#e8624e" stroke-width="1"/>
    <path id="Trazado_895514" data-name="Trazado 895514" d="M0,0H177.276" transform="translate(819.619 5378.186) rotate(90)" fill="none" stroke="#e8624e" stroke-width="1"/>
    <path id="Trazado_895515" data-name="Trazado 895515" d="M0,0H177.276" transform="translate(851.018 5378.186) rotate(90)" fill="none" stroke="#e8624e" stroke-width="1"/>
    <path id="Trazado_895516" data-name="Trazado 895516" d="M0,0H177.276" transform="translate(884.479 5378.186) rotate(90)" fill="none" stroke="#e8624e" stroke-width="1"/>
    <path id="Trazado_895502" data-name="Trazado 895502" d="M-8828-6466.468h194.426" transform="translate(9550.397 11903.242)" fill="none" stroke="#e8624e" stroke-width="1"/>
    <path id="Trazado_895503" data-name="Trazado 895503" d="M-8828-6466.468h194.426" transform="translate(9550.397 11933.291)" fill="none" stroke="#e8624e" stroke-width="1"/>
    <path id="Trazado_895504" data-name="Trazado 895504" d="M-8828-6466.468h194.426" transform="translate(9550.397 11963.595)" fill="none" stroke="#e8624e" stroke-width="1"/>
    <path id="Trazado_895505" data-name="Trazado 895505" d="M-8828-6466.468h194.426" transform="translate(9550.397 11992.604)" fill="none" stroke="#e8624e" stroke-width="1"/>
    <path id="Trazado_895506" data-name="Trazado 895506" d="M-8828.654-6389.193v12.78" transform="translate(9550.349 11879.982)" fill="none" stroke="#8b3a2e" stroke-width="1"/>
    <path id="Trazado_895507" data-name="Trazado 895507" d="M-8828.654-6389.193v12.78" transform="translate(9582.58 11879.982)" fill="none" stroke="#8b3a2e" stroke-width="1"/>
    <path id="Trazado_895508" data-name="Trazado 895508" d="M-8828.654-6389.193v12.78" transform="translate(9648.127 11879.982)" fill="none" stroke="#8b3a2e" stroke-width="1"/>
    <path id="Trazado_895509" data-name="Trazado 895509" d="M-8828.654-6389.193v12.78" transform="translate(9680.9 11879.982)" fill="none" stroke="#8b3a2e" stroke-width="1"/>
    <path id="Trazado_895510" data-name="Trazado 895510" d="M-8828.654-6389.193v12.78" transform="translate(9713.133 11879.982)" fill="none" stroke="#8b3a2e" stroke-width="1"/>
    <path id="Trazado_895511" data-name="Trazado 895511" d="M-8828.654-6389.193v12.78" transform="translate(9746.592 11879.982)" fill="none" stroke="#8b3a2e" stroke-width="1"/>
    <path id="Trazado_895930" data-name="Trazado 895930" d="M-7.4-5.155a7.023,7.023,0,0,1-.921,4.009A3.277,3.277,0,0,1-11.206.166,3.3,3.3,0,0,1-14.07-1.116a6.666,6.666,0,0,1-.963-3.831V-7a6.867,6.867,0,0,1,.921-3.959,3.3,3.3,0,0,1,2.889-1.295A3.332,3.332,0,0,1-8.351-11,6.627,6.627,0,0,1-7.4-7.147Zm-1.536-2.1A5.627,5.627,0,0,0-9.488-10.1a1.886,1.886,0,0,0-1.735-.892,1.861,1.861,0,0,0-1.718.888A5.494,5.494,0,0,0-13.5-7.371v2.457a5.717,5.717,0,0,0,.569,2.893,1.882,1.882,0,0,0,1.722.934,1.856,1.856,0,0,0,1.689-.88A5.51,5.51,0,0,0-8.94-4.74Zm3.611,9.662-.872-.6A4.006,4.006,0,0,0-5.387-.432V-1.818h1.5v1.2A3.781,3.781,0,0,1-4.3,1.063,3.926,3.926,0,0,1-5.329,2.407ZM5.229-8.932a2.807,2.807,0,0,1-.477,1.61,3.248,3.248,0,0,1-1.291,1.1A3.464,3.464,0,0,1,4.96-5.03a2.987,2.987,0,0,1,.552,1.768,3.158,3.158,0,0,1-1.058,2.5,4.066,4.066,0,0,1-2.785.93A4.048,4.048,0,0,1-1.125-.768a3.173,3.173,0,0,1-1.05-2.494A3.076,3.076,0,0,1-1.639-5.03a3.332,3.332,0,0,1,1.482-1.2,3.167,3.167,0,0,1-1.27-1.1,2.846,2.846,0,0,1-.465-1.6,3.124,3.124,0,0,1,.979-2.424,3.674,3.674,0,0,1,2.582-.9,3.678,3.678,0,0,1,2.577.9A3.117,3.117,0,0,1,5.229-8.932ZM3.976-3.3a2.228,2.228,0,0,0-.643-1.652,2.281,2.281,0,0,0-1.681-.639,2.241,2.241,0,0,0-1.664.631A2.253,2.253,0,0,0-.639-3.3a2.145,2.145,0,0,0,.61,1.619,2.342,2.342,0,0,0,1.7.589,2.335,2.335,0,0,0,1.693-.594A2.14,2.14,0,0,0,3.976-3.3ZM1.668-10.99A1.981,1.981,0,0,0,.2-10.43a2.058,2.058,0,0,0-.56,1.523A2.048,2.048,0,0,0,.2-7.417a1.959,1.959,0,0,0,1.473.569,1.959,1.959,0,0,0,1.473-.569,2.048,2.048,0,0,0,.552-1.49,2.049,2.049,0,0,0-.573-1.5A1.953,1.953,0,0,0,1.668-10.99Zm12.26,6.931h1.677v1.253H13.929V0H12.385V-2.806h-5.5v-.9l5.412-8.375h1.635Zm-5.3,0h3.76V-9.986l-.183.332Z" transform="translate(740.856 5494.862)" fill="#8b3a2e"/>
    <path id="Trazado_895931" data-name="Trazado 895931" d="M-7.4-5.155a7.023,7.023,0,0,1-.921,4.009A3.277,3.277,0,0,1-11.206.166,3.3,3.3,0,0,1-14.07-1.116a6.666,6.666,0,0,1-.963-3.831V-7a6.867,6.867,0,0,1,.921-3.959,3.3,3.3,0,0,1,2.889-1.295A3.332,3.332,0,0,1-8.351-11,6.627,6.627,0,0,1-7.4-7.147Zm-1.536-2.1A5.627,5.627,0,0,0-9.488-10.1a1.886,1.886,0,0,0-1.735-.892,1.861,1.861,0,0,0-1.718.888A5.494,5.494,0,0,0-13.5-7.371v2.457a5.717,5.717,0,0,0,.569,2.893,1.882,1.882,0,0,0,1.722.934,1.856,1.856,0,0,0,1.689-.88A5.51,5.51,0,0,0-8.94-4.74Zm3.611,9.662-.872-.6A4.006,4.006,0,0,0-5.387-.432V-1.818h1.5v1.2A3.781,3.781,0,0,1-4.3,1.063,3.926,3.926,0,0,1-5.329,2.407ZM5.229-8.932a2.807,2.807,0,0,1-.477,1.61,3.248,3.248,0,0,1-1.291,1.1A3.464,3.464,0,0,1,4.96-5.03a2.987,2.987,0,0,1,.552,1.768,3.158,3.158,0,0,1-1.058,2.5,4.066,4.066,0,0,1-2.785.93A4.048,4.048,0,0,1-1.125-.768a3.173,3.173,0,0,1-1.05-2.494A3.076,3.076,0,0,1-1.639-5.03a3.332,3.332,0,0,1,1.482-1.2,3.167,3.167,0,0,1-1.27-1.1,2.846,2.846,0,0,1-.465-1.6,3.124,3.124,0,0,1,.979-2.424,3.674,3.674,0,0,1,2.582-.9,3.678,3.678,0,0,1,2.577.9A3.117,3.117,0,0,1,5.229-8.932ZM3.976-3.3a2.228,2.228,0,0,0-.643-1.652,2.281,2.281,0,0,0-1.681-.639,2.241,2.241,0,0,0-1.664.631A2.253,2.253,0,0,0-.639-3.3a2.145,2.145,0,0,0,.61,1.619,2.342,2.342,0,0,0,1.7.589,2.335,2.335,0,0,0,1.693-.594A2.14,2.14,0,0,0,3.976-3.3ZM1.668-10.99A1.981,1.981,0,0,0,.2-10.43a2.058,2.058,0,0,0-.56,1.523A2.048,2.048,0,0,0,.2-7.417a1.959,1.959,0,0,0,1.473.569,1.959,1.959,0,0,0,1.473-.569,2.048,2.048,0,0,0,.552-1.49,2.049,2.049,0,0,0-.573-1.5A1.953,1.953,0,0,0,1.668-10.99Zm12.26,6.931h1.677v1.253H13.929V0H12.385V-2.806h-5.5v-.9l5.412-8.375h1.635Zm-5.3,0h3.76V-9.986l-.183.332Z" transform="translate(774.163 5494.862)" fill="#8b3a2e"/>
    <path id="Trazado_895932" data-name="Trazado 895932" d="M-7.4-5.155a7.023,7.023,0,0,1-.921,4.009A3.277,3.277,0,0,1-11.206.166,3.3,3.3,0,0,1-14.07-1.116a6.666,6.666,0,0,1-.963-3.831V-7a6.867,6.867,0,0,1,.921-3.959,3.3,3.3,0,0,1,2.889-1.295A3.332,3.332,0,0,1-8.351-11,6.627,6.627,0,0,1-7.4-7.147Zm-1.536-2.1A5.627,5.627,0,0,0-9.488-10.1a1.886,1.886,0,0,0-1.735-.892,1.861,1.861,0,0,0-1.718.888A5.494,5.494,0,0,0-13.5-7.371v2.457a5.717,5.717,0,0,0,.569,2.893,1.882,1.882,0,0,0,1.722.934,1.856,1.856,0,0,0,1.689-.88A5.51,5.51,0,0,0-8.94-4.74Zm3.611,9.662-.872-.6A4.006,4.006,0,0,0-5.387-.432V-1.818h1.5v1.2A3.781,3.781,0,0,1-4.3,1.063,3.926,3.926,0,0,1-5.329,2.407ZM5.229-8.932a2.807,2.807,0,0,1-.477,1.61,3.248,3.248,0,0,1-1.291,1.1A3.464,3.464,0,0,1,4.96-5.03a2.987,2.987,0,0,1,.552,1.768,3.158,3.158,0,0,1-1.058,2.5,4.066,4.066,0,0,1-2.785.93A4.048,4.048,0,0,1-1.125-.768a3.173,3.173,0,0,1-1.05-2.494A3.076,3.076,0,0,1-1.639-5.03a3.332,3.332,0,0,1,1.482-1.2,3.167,3.167,0,0,1-1.27-1.1,2.846,2.846,0,0,1-.465-1.6,3.124,3.124,0,0,1,.979-2.424,3.674,3.674,0,0,1,2.582-.9,3.678,3.678,0,0,1,2.577.9A3.117,3.117,0,0,1,5.229-8.932ZM3.976-3.3a2.228,2.228,0,0,0-.643-1.652,2.281,2.281,0,0,0-1.681-.639,2.241,2.241,0,0,0-1.664.631A2.253,2.253,0,0,0-.639-3.3a2.145,2.145,0,0,0,.61,1.619,2.342,2.342,0,0,0,1.7.589,2.335,2.335,0,0,0,1.693-.594A2.14,2.14,0,0,0,3.976-3.3ZM1.668-10.99A1.981,1.981,0,0,0,.2-10.43a2.058,2.058,0,0,0-.56,1.523A2.048,2.048,0,0,0,.2-7.417a1.959,1.959,0,0,0,1.473.569,1.959,1.959,0,0,0,1.473-.569,2.048,2.048,0,0,0,.552-1.49,2.049,2.049,0,0,0-.573-1.5A1.953,1.953,0,0,0,1.668-10.99Zm12.26,6.931h1.677v1.253H13.929V0H12.385V-2.806h-5.5v-.9l5.412-8.375h1.635Zm-5.3,0h3.76V-9.986l-.183.332Z" transform="translate(805.862 5494.862)" fill="#8b3a2e"/>
    <path id="Trazado_895933" data-name="Trazado 895933" d="M-7.4-5.155a7.023,7.023,0,0,1-.921,4.009A3.277,3.277,0,0,1-11.206.166,3.3,3.3,0,0,1-14.07-1.116a6.666,6.666,0,0,1-.963-3.831V-7a6.867,6.867,0,0,1,.921-3.959,3.3,3.3,0,0,1,2.889-1.295A3.332,3.332,0,0,1-8.351-11,6.627,6.627,0,0,1-7.4-7.147Zm-1.536-2.1A5.627,5.627,0,0,0-9.488-10.1a1.886,1.886,0,0,0-1.735-.892,1.861,1.861,0,0,0-1.718.888A5.494,5.494,0,0,0-13.5-7.371v2.457a5.717,5.717,0,0,0,.569,2.893,1.882,1.882,0,0,0,1.722.934,1.856,1.856,0,0,0,1.689-.88A5.51,5.51,0,0,0-8.94-4.74Zm3.611,9.662-.872-.6A4.006,4.006,0,0,0-5.387-.432V-1.818h1.5v1.2A3.781,3.781,0,0,1-4.3,1.063,3.926,3.926,0,0,1-5.329,2.407ZM5.229-8.932a2.807,2.807,0,0,1-.477,1.61,3.248,3.248,0,0,1-1.291,1.1A3.464,3.464,0,0,1,4.96-5.03a2.987,2.987,0,0,1,.552,1.768,3.158,3.158,0,0,1-1.058,2.5,4.066,4.066,0,0,1-2.785.93A4.048,4.048,0,0,1-1.125-.768a3.173,3.173,0,0,1-1.05-2.494A3.076,3.076,0,0,1-1.639-5.03a3.332,3.332,0,0,1,1.482-1.2,3.167,3.167,0,0,1-1.27-1.1,2.846,2.846,0,0,1-.465-1.6,3.124,3.124,0,0,1,.979-2.424,3.674,3.674,0,0,1,2.582-.9,3.678,3.678,0,0,1,2.577.9A3.117,3.117,0,0,1,5.229-8.932ZM3.976-3.3a2.228,2.228,0,0,0-.643-1.652,2.281,2.281,0,0,0-1.681-.639,2.241,2.241,0,0,0-1.664.631A2.253,2.253,0,0,0-.639-3.3a2.145,2.145,0,0,0,.61,1.619,2.342,2.342,0,0,0,1.7.589,2.335,2.335,0,0,0,1.693-.594A2.14,2.14,0,0,0,3.976-3.3ZM1.668-10.99A1.981,1.981,0,0,0,.2-10.43a2.058,2.058,0,0,0-.56,1.523A2.048,2.048,0,0,0,.2-7.417a1.959,1.959,0,0,0,1.473.569,1.959,1.959,0,0,0,1.473-.569,2.048,2.048,0,0,0,.552-1.49,2.049,2.049,0,0,0-.573-1.5A1.953,1.953,0,0,0,1.668-10.99Zm12.26,6.931h1.677v1.253H13.929V0H12.385V-2.806h-5.5v-.9l5.412-8.375h1.635Zm-5.3,0h3.76V-9.986l-.183.332Z" transform="translate(838.627 5494.862)" fill="#8b3a2e"/>
    <path id="Trazado_895934" data-name="Trazado 895934" d="M-7.4-5.155a7.023,7.023,0,0,1-.921,4.009A3.277,3.277,0,0,1-11.206.166,3.3,3.3,0,0,1-14.07-1.116a6.666,6.666,0,0,1-.963-3.831V-7a6.867,6.867,0,0,1,.921-3.959,3.3,3.3,0,0,1,2.889-1.295A3.332,3.332,0,0,1-8.351-11,6.627,6.627,0,0,1-7.4-7.147Zm-1.536-2.1A5.627,5.627,0,0,0-9.488-10.1a1.886,1.886,0,0,0-1.735-.892,1.861,1.861,0,0,0-1.718.888A5.494,5.494,0,0,0-13.5-7.371v2.457a5.717,5.717,0,0,0,.569,2.893,1.882,1.882,0,0,0,1.722.934,1.856,1.856,0,0,0,1.689-.88A5.51,5.51,0,0,0-8.94-4.74Zm3.611,9.662-.872-.6A4.006,4.006,0,0,0-5.387-.432V-1.818h1.5v1.2A3.781,3.781,0,0,1-4.3,1.063,3.926,3.926,0,0,1-5.329,2.407ZM5.229-8.932a2.807,2.807,0,0,1-.477,1.61,3.248,3.248,0,0,1-1.291,1.1A3.464,3.464,0,0,1,4.96-5.03a2.987,2.987,0,0,1,.552,1.768,3.158,3.158,0,0,1-1.058,2.5,4.066,4.066,0,0,1-2.785.93A4.048,4.048,0,0,1-1.125-.768a3.173,3.173,0,0,1-1.05-2.494A3.076,3.076,0,0,1-1.639-5.03a3.332,3.332,0,0,1,1.482-1.2,3.167,3.167,0,0,1-1.27-1.1,2.846,2.846,0,0,1-.465-1.6,3.124,3.124,0,0,1,.979-2.424,3.674,3.674,0,0,1,2.582-.9,3.678,3.678,0,0,1,2.577.9A3.117,3.117,0,0,1,5.229-8.932ZM3.976-3.3a2.228,2.228,0,0,0-.643-1.652,2.281,2.281,0,0,0-1.681-.639,2.241,2.241,0,0,0-1.664.631A2.253,2.253,0,0,0-.639-3.3a2.145,2.145,0,0,0,.61,1.619,2.342,2.342,0,0,0,1.7.589,2.335,2.335,0,0,0,1.693-.594A2.14,2.14,0,0,0,3.976-3.3ZM1.668-10.99A1.981,1.981,0,0,0,.2-10.43a2.058,2.058,0,0,0-.56,1.523A2.048,2.048,0,0,0,.2-7.417a1.959,1.959,0,0,0,1.473.569,1.959,1.959,0,0,0,1.473-.569,2.048,2.048,0,0,0,.552-1.49,2.049,2.049,0,0,0-.573-1.5A1.953,1.953,0,0,0,1.668-10.99Zm12.26,6.931h1.677v1.253H13.929V0H12.385V-2.806h-5.5v-.9l5.412-8.375h1.635Zm-5.3,0h3.76V-9.986l-.183.332Z" transform="translate(868.246 5494.862)" fill="#8b3a2e"/>
    <path id="Trazado_895935" data-name="Trazado 895935" d="M-7.4-5.155a7.023,7.023,0,0,1-.921,4.009A3.277,3.277,0,0,1-11.206.166,3.3,3.3,0,0,1-14.07-1.116a6.666,6.666,0,0,1-.963-3.831V-7a6.867,6.867,0,0,1,.921-3.959,3.3,3.3,0,0,1,2.889-1.295A3.332,3.332,0,0,1-8.351-11,6.627,6.627,0,0,1-7.4-7.147Zm-1.536-2.1A5.627,5.627,0,0,0-9.488-10.1a1.886,1.886,0,0,0-1.735-.892,1.861,1.861,0,0,0-1.718.888A5.494,5.494,0,0,0-13.5-7.371v2.457a5.717,5.717,0,0,0,.569,2.893,1.882,1.882,0,0,0,1.722.934,1.856,1.856,0,0,0,1.689-.88A5.51,5.51,0,0,0-8.94-4.74Zm3.611,9.662-.872-.6A4.006,4.006,0,0,0-5.387-.432V-1.818h1.5v1.2A3.781,3.781,0,0,1-4.3,1.063,3.926,3.926,0,0,1-5.329,2.407ZM5.229-8.932a2.807,2.807,0,0,1-.477,1.61,3.248,3.248,0,0,1-1.291,1.1A3.464,3.464,0,0,1,4.96-5.03a2.987,2.987,0,0,1,.552,1.768,3.158,3.158,0,0,1-1.058,2.5,4.066,4.066,0,0,1-2.785.93A4.048,4.048,0,0,1-1.125-.768a3.173,3.173,0,0,1-1.05-2.494A3.076,3.076,0,0,1-1.639-5.03a3.332,3.332,0,0,1,1.482-1.2,3.167,3.167,0,0,1-1.27-1.1,2.846,2.846,0,0,1-.465-1.6,3.124,3.124,0,0,1,.979-2.424,3.674,3.674,0,0,1,2.582-.9,3.678,3.678,0,0,1,2.577.9A3.117,3.117,0,0,1,5.229-8.932ZM3.976-3.3a2.228,2.228,0,0,0-.643-1.652,2.281,2.281,0,0,0-1.681-.639,2.241,2.241,0,0,0-1.664.631A2.253,2.253,0,0,0-.639-3.3a2.145,2.145,0,0,0,.61,1.619,2.342,2.342,0,0,0,1.7.589,2.335,2.335,0,0,0,1.693-.594A2.14,2.14,0,0,0,3.976-3.3ZM1.668-10.99A1.981,1.981,0,0,0,.2-10.43a2.058,2.058,0,0,0-.56,1.523A2.048,2.048,0,0,0,.2-7.417a1.959,1.959,0,0,0,1.473.569,1.959,1.959,0,0,0,1.473-.569,2.048,2.048,0,0,0,.552-1.49,2.049,2.049,0,0,0-.573-1.5A1.953,1.953,0,0,0,1.668-10.99Zm12.26,6.931h1.677v1.253H13.929V0H12.385V-2.806h-5.5v-.9l5.412-8.375h1.635Zm-5.3,0h3.76V-9.986l-.183.332Z" transform="translate(901.706 5494.862)" fill="#8b3a2e"/>
    <path id="Trazado_895936" data-name="Trazado 895936" d="M-7.4-5.155a7.023,7.023,0,0,1-.921,4.009A3.277,3.277,0,0,1-11.206.166,3.3,3.3,0,0,1-14.07-1.116a6.666,6.666,0,0,1-.963-3.831V-7a6.867,6.867,0,0,1,.921-3.959,3.3,3.3,0,0,1,2.889-1.295A3.332,3.332,0,0,1-8.351-11,6.627,6.627,0,0,1-7.4-7.147Zm-1.536-2.1A5.627,5.627,0,0,0-9.488-10.1a1.886,1.886,0,0,0-1.735-.892,1.861,1.861,0,0,0-1.718.888A5.494,5.494,0,0,0-13.5-7.371v2.457a5.717,5.717,0,0,0,.569,2.893,1.882,1.882,0,0,0,1.722.934,1.856,1.856,0,0,0,1.689-.88A5.51,5.51,0,0,0-8.94-4.74Zm3.611,9.662-.872-.6A4.006,4.006,0,0,0-5.387-.432V-1.818h1.5v1.2A3.781,3.781,0,0,1-4.3,1.063,3.926,3.926,0,0,1-5.329,2.407ZM5.7-11.223.7,0H-.913L4.076-10.824H-2.465v-1.262H5.7Zm7.77-.872v1.3H13.19a4.043,4.043,0,0,0-2.855,1.063,4.421,4.421,0,0,0-1.229,2.9,3.278,3.278,0,0,1,2.606-1.1,3.134,3.134,0,0,1,2.519,1.112,4.29,4.29,0,0,1,.942,2.872A4.277,4.277,0,0,1,14.157-.955,3.5,3.5,0,0,1,11.43.166,3.45,3.45,0,0,1,8.616-1.166,5.28,5.28,0,0,1,7.537-4.6v-.589a7.956,7.956,0,0,1,1.424-5.1A5.228,5.228,0,0,1,13.2-12.094ZM11.455-6.649A2.45,2.45,0,0,0,10-6.176a2.465,2.465,0,0,0-.921,1.187v.564a3.965,3.965,0,0,0,.672,2.407A2.015,2.015,0,0,0,11.43-1.1a1.952,1.952,0,0,0,1.631-.764,3.169,3.169,0,0,0,.594-2,3.17,3.17,0,0,0-.6-2.013A1.929,1.929,0,0,0,11.455-6.649Z" transform="translate(802.699 5547.792) rotate(-90)" fill="#7000d2"/>
    <path id="Trazado_895937" data-name="Trazado 895937" d="M-7.4-5.155a7.023,7.023,0,0,1-.921,4.009A3.277,3.277,0,0,1-11.206.166,3.3,3.3,0,0,1-14.07-1.116a6.666,6.666,0,0,1-.963-3.831V-7a6.867,6.867,0,0,1,.921-3.959,3.3,3.3,0,0,1,2.889-1.295A3.332,3.332,0,0,1-8.351-11,6.627,6.627,0,0,1-7.4-7.147Zm-1.536-2.1A5.627,5.627,0,0,0-9.488-10.1a1.886,1.886,0,0,0-1.735-.892,1.861,1.861,0,0,0-1.718.888A5.494,5.494,0,0,0-13.5-7.371v2.457a5.717,5.717,0,0,0,.569,2.893,1.882,1.882,0,0,0,1.722.934,1.856,1.856,0,0,0,1.689-.88A5.51,5.51,0,0,0-8.94-4.74Zm3.611,9.662-.872-.6A4.006,4.006,0,0,0-5.387-.432V-1.818h1.5v1.2A3.781,3.781,0,0,1-4.3,1.063,3.926,3.926,0,0,1-5.329,2.407ZM5.7-11.223.7,0H-.913L4.076-10.824H-2.465v-1.262H5.7Zm7.77-.872v1.3H13.19a4.043,4.043,0,0,0-2.855,1.063,4.421,4.421,0,0,0-1.229,2.9,3.278,3.278,0,0,1,2.606-1.1,3.134,3.134,0,0,1,2.519,1.112,4.29,4.29,0,0,1,.942,2.872A4.277,4.277,0,0,1,14.157-.955,3.5,3.5,0,0,1,11.43.166,3.45,3.45,0,0,1,8.616-1.166,5.28,5.28,0,0,1,7.537-4.6v-.589a7.956,7.956,0,0,1,1.424-5.1A5.228,5.228,0,0,1,13.2-12.094ZM11.455-6.649A2.45,2.45,0,0,0,10-6.176a2.465,2.465,0,0,0-.921,1.187v.564a3.965,3.965,0,0,0,.672,2.407A2.015,2.015,0,0,0,11.43-1.1a1.952,1.952,0,0,0,1.631-.764,3.169,3.169,0,0,0,.594-2,3.17,3.17,0,0,0-.6-2.013A1.929,1.929,0,0,0,11.455-6.649Z" transform="translate(802.699 5514.486) rotate(-90)" fill="#7000d2"/>
    <path id="Trazado_895938" data-name="Trazado 895938" d="M-7.4-5.155a7.023,7.023,0,0,1-.921,4.009A3.277,3.277,0,0,1-11.206.166,3.3,3.3,0,0,1-14.07-1.116a6.666,6.666,0,0,1-.963-3.831V-7a6.867,6.867,0,0,1,.921-3.959,3.3,3.3,0,0,1,2.889-1.295A3.332,3.332,0,0,1-8.351-11,6.627,6.627,0,0,1-7.4-7.147Zm-1.536-2.1A5.627,5.627,0,0,0-9.488-10.1a1.886,1.886,0,0,0-1.735-.892,1.861,1.861,0,0,0-1.718.888A5.494,5.494,0,0,0-13.5-7.371v2.457a5.717,5.717,0,0,0,.569,2.893,1.882,1.882,0,0,0,1.722.934,1.856,1.856,0,0,0,1.689-.88A5.51,5.51,0,0,0-8.94-4.74Zm3.611,9.662-.872-.6A4.006,4.006,0,0,0-5.387-.432V-1.818h1.5v1.2A3.781,3.781,0,0,1-4.3,1.063,3.926,3.926,0,0,1-5.329,2.407ZM5.7-11.223.7,0H-.913L4.076-10.824H-2.465v-1.262H5.7Zm7.77-.872v1.3H13.19a4.043,4.043,0,0,0-2.855,1.063,4.421,4.421,0,0,0-1.229,2.9,3.278,3.278,0,0,1,2.606-1.1,3.134,3.134,0,0,1,2.519,1.112,4.29,4.29,0,0,1,.942,2.872A4.277,4.277,0,0,1,14.157-.955,3.5,3.5,0,0,1,11.43.166,3.45,3.45,0,0,1,8.616-1.166,5.28,5.28,0,0,1,7.537-4.6v-.589a7.956,7.956,0,0,1,1.424-5.1A5.228,5.228,0,0,1,13.2-12.094ZM11.455-6.649A2.45,2.45,0,0,0,10-6.176a2.465,2.465,0,0,0-.921,1.187v.564a3.965,3.965,0,0,0,.672,2.407A2.015,2.015,0,0,0,11.43-1.1a1.952,1.952,0,0,0,1.631-.764,3.169,3.169,0,0,0,.594-2,3.17,3.17,0,0,0-.6-2.013A1.929,1.929,0,0,0,11.455-6.649Z" transform="translate(802.699 5462.862) rotate(-90)" fill="#7000d2"/>
    <path id="Trazado_895939" data-name="Trazado 895939" d="M-7.4-5.155a7.023,7.023,0,0,1-.921,4.009A3.277,3.277,0,0,1-11.206.166,3.3,3.3,0,0,1-14.07-1.116a6.666,6.666,0,0,1-.963-3.831V-7a6.867,6.867,0,0,1,.921-3.959,3.3,3.3,0,0,1,2.889-1.295A3.332,3.332,0,0,1-8.351-11,6.627,6.627,0,0,1-7.4-7.147Zm-1.536-2.1A5.627,5.627,0,0,0-9.488-10.1a1.886,1.886,0,0,0-1.735-.892,1.861,1.861,0,0,0-1.718.888A5.494,5.494,0,0,0-13.5-7.371v2.457a5.717,5.717,0,0,0,.569,2.893,1.882,1.882,0,0,0,1.722.934,1.856,1.856,0,0,0,1.689-.88A5.51,5.51,0,0,0-8.94-4.74Zm3.611,9.662-.872-.6A4.006,4.006,0,0,0-5.387-.432V-1.818h1.5v1.2A3.781,3.781,0,0,1-4.3,1.063,3.926,3.926,0,0,1-5.329,2.407ZM5.7-11.223.7,0H-.913L4.076-10.824H-2.465v-1.262H5.7Zm7.77-.872v1.3H13.19a4.043,4.043,0,0,0-2.855,1.063,4.421,4.421,0,0,0-1.229,2.9,3.278,3.278,0,0,1,2.606-1.1,3.134,3.134,0,0,1,2.519,1.112,4.29,4.29,0,0,1,.942,2.872A4.277,4.277,0,0,1,14.157-.955,3.5,3.5,0,0,1,11.43.166,3.45,3.45,0,0,1,8.616-1.166,5.28,5.28,0,0,1,7.537-4.6v-.589a7.956,7.956,0,0,1,1.424-5.1A5.228,5.228,0,0,1,13.2-12.094ZM11.455-6.649A2.45,2.45,0,0,0,10-6.176a2.465,2.465,0,0,0-.921,1.187v.564a3.965,3.965,0,0,0,.672,2.407A2.015,2.015,0,0,0,11.43-1.1a1.952,1.952,0,0,0,1.631-.764,3.169,3.169,0,0,0,.594-2,3.17,3.17,0,0,0-.6-2.013A1.929,1.929,0,0,0,11.455-6.649Z" transform="translate(802.699 5423.109) rotate(-90)" fill="#7000d2"/>
    <path id="Trazado_895940" data-name="Trazado 895940" d="M-7.4-5.155a7.023,7.023,0,0,1-.921,4.009A3.277,3.277,0,0,1-11.206.166,3.3,3.3,0,0,1-14.07-1.116a6.666,6.666,0,0,1-.963-3.831V-7a6.867,6.867,0,0,1,.921-3.959,3.3,3.3,0,0,1,2.889-1.295A3.332,3.332,0,0,1-8.351-11,6.627,6.627,0,0,1-7.4-7.147Zm-1.536-2.1A5.627,5.627,0,0,0-9.488-10.1a1.886,1.886,0,0,0-1.735-.892,1.861,1.861,0,0,0-1.718.888A5.494,5.494,0,0,0-13.5-7.371v2.457a5.717,5.717,0,0,0,.569,2.893,1.882,1.882,0,0,0,1.722.934,1.856,1.856,0,0,0,1.689-.88A5.51,5.51,0,0,0-8.94-4.74Zm3.611,9.662-.872-.6A4.006,4.006,0,0,0-5.387-.432V-1.818h1.5v1.2A3.781,3.781,0,0,1-4.3,1.063,3.926,3.926,0,0,1-5.329,2.407ZM5.7-11.223.7,0H-.913L4.076-10.824H-2.465v-1.262H5.7Zm7.77-.872v1.3H13.19a4.043,4.043,0,0,0-2.855,1.063,4.421,4.421,0,0,0-1.229,2.9,3.278,3.278,0,0,1,2.606-1.1,3.134,3.134,0,0,1,2.519,1.112,4.29,4.29,0,0,1,.942,2.872A4.277,4.277,0,0,1,14.157-.955,3.5,3.5,0,0,1,11.43.166,3.45,3.45,0,0,1,8.616-1.166,5.28,5.28,0,0,1,7.537-4.6v-.589a7.956,7.956,0,0,1,1.424-5.1A5.228,5.228,0,0,1,13.2-12.094ZM11.455-6.649A2.45,2.45,0,0,0,10-6.176a2.465,2.465,0,0,0-.921,1.187v.564a3.965,3.965,0,0,0,.672,2.407A2.015,2.015,0,0,0,11.43-1.1a1.952,1.952,0,0,0,1.631-.764,3.169,3.169,0,0,0,.594-2,3.17,3.17,0,0,0-.6-2.013A1.929,1.929,0,0,0,11.455-6.649Z" transform="translate(802.699 5387.654) rotate(-90)" fill="#7000d2"/>
  </g>
</svg>
