<svg xmlns="http://www.w3.org/2000/svg" xmlns:xlink="http://www.w3.org/1999/xlink" width="350.359" height="598.064" viewBox="0 0 350.359 598.064">
  <defs>
    <clipPath id="clip-path">
      <rect id="Rectángulo_406836" data-name="Rectángulo 406836" width="19.699" height="278.4" fill="none"/>
    </clipPath>
  </defs>
  <g id="Grupo_1113834" data-name="Grupo 1113834" transform="translate(-628.254 -3229.556)">
    <path id="Trazado_895429" data-name="Trazado 895429" d="M78.063,8.984,148.775.877l23.294,86.488,8.335,58.45V465.85H.8V10.132l56.5.117h.206l.18-.1,9.387-5.175L77.694,8.938l.179.068ZM149.368,0l-71.4,8.185L67.012,4.092,57.3,9.444,0,9.326V466.654H181.2v-320.9L172.854,87.2Z" transform="translate(704.151 3305.888)"/>
    <g id="Grupo_1113628" data-name="Grupo 1113628" transform="translate(726.711 3416.709)" clip-path="url(#clip-path)">
      <path id="Trazado_895430" data-name="Trazado 895430" d="M.449,18.979,10.237,2.155V276.733L19.271,258" transform="translate(-0.017 -0.407)" fill="none" stroke="#000" stroke-miterlimit="10" stroke-width="1"/>
    </g>
    <path id="Trazado_896167" data-name="Trazado 896167" d="M4,0A4,4,0,1,1,0,4,4,4,0,0,1,4,0Z" transform="translate(699.711 3311.677)" fill="#e8624e"/>
    <path id="Trazado_896168" data-name="Trazado 896168" d="M4,0A4,4,0,1,1,0,4,4,4,0,0,1,4,0Z" transform="translate(768.711 3305.677)" fill="#e8624e"/>
    <path id="Trazado_896169" data-name="Trazado 896169" d="M4,0A4,4,0,1,1,0,4,4,4,0,0,1,4,0Z" transform="translate(848.711 3301.677)" fill="#e8624e"/>
    <path id="Trazado_896170" data-name="Trazado 896170" d="M4,0A4,4,0,1,1,0,4,4,4,0,0,1,4,0Z" transform="translate(881.711 3447.677)" fill="#e8624e"/>
    <path id="Trazado_896171" data-name="Trazado 896171" d="M4,0A4,4,0,1,1,0,4,4,4,0,0,1,4,0Z" transform="translate(881.711 3767.677)" fill="#e8624e"/>
    <path id="Trazado_896172" data-name="Trazado 896172" d="M4,0A4,4,0,1,1,0,4,4,4,0,0,1,4,0Z" transform="translate(700.711 3767.677)" fill="#e8624e"/>
    <path id="Trazado_896173" data-name="Trazado 896173" d="M8.078,12.148a6.61,6.61,0,0,1-.867,3.773A3.084,3.084,0,0,1,4.5,17.156a3.107,3.107,0,0,1-2.7-1.207A6.274,6.274,0,0,1,.9,12.344v-1.93a6.463,6.463,0,0,1,.867-3.727A3.108,3.108,0,0,1,4.484,5.469a3.136,3.136,0,0,1,2.7,1.176,6.237,6.237,0,0,1,.891,3.629ZM6.633,10.172A5.3,5.3,0,0,0,6.117,7.5a1.775,1.775,0,0,0-1.633-.84,1.751,1.751,0,0,0-1.617.836,5.171,5.171,0,0,0-.523,2.57v2.313A5.381,5.381,0,0,0,2.879,15.1a1.771,1.771,0,0,0,1.621.879,1.747,1.747,0,0,0,1.59-.828,5.186,5.186,0,0,0,.543-2.609Zm3.477,6.07a.905.905,0,0,1,.223-.625.848.848,0,0,1,.668-.25.874.874,0,0,1,.676.25.887.887,0,0,1,.23.625.839.839,0,0,1-.23.6.89.89,0,0,1-.676.242.8.8,0,0,1-.891-.844ZM21.594,17H14.141V15.961l3.938-4.375a9.354,9.354,0,0,0,1.207-1.613,2.693,2.693,0,0,0,.332-1.285,2.041,2.041,0,0,0-.539-1.461,1.885,1.885,0,0,0-1.437-.57,2.232,2.232,0,0,0-1.676.613,2.343,2.343,0,0,0-.6,1.707H13.922a3.355,3.355,0,0,1,1.012-2.539,3.751,3.751,0,0,1,2.707-.969,3.6,3.6,0,0,1,2.508.832,2.838,2.838,0,0,1,.922,2.215q0,1.68-2.141,4l-3.047,3.3h5.711Zm2.2-5.7.578-5.672H30.2V6.961h-4.6l-.344,3.1a3.671,3.671,0,0,1,1.9-.492A3.138,3.138,0,0,1,29.617,10.6a4.026,4.026,0,0,1,.914,2.777,3.886,3.886,0,0,1-.949,2.77,3.46,3.46,0,0,1-2.652,1.012,3.6,3.6,0,0,1-2.461-.836,3.337,3.337,0,0,1-1.086-2.312H24.75a2.3,2.3,0,0,0,.7,1.473,2.162,2.162,0,0,0,1.484.5,1.95,1.95,0,0,0,1.582-.687,2.874,2.874,0,0,0,.574-1.9,2.638,2.638,0,0,0-.621-1.832,2.113,2.113,0,0,0-1.652-.691,2.383,2.383,0,0,0-1.484.414l-.383.313Zm15.82,4.68a2.082,2.082,0,0,0,1.352-.469,1.649,1.649,0,0,0,.641-1.172h1.367a2.621,2.621,0,0,1-.5,1.383,3.293,3.293,0,0,1-1.23,1.047,3.55,3.55,0,0,1-1.629.391A3.482,3.482,0,0,1,36.863,16a4.59,4.59,0,0,1-1.02-3.152v-.242a5.089,5.089,0,0,1,.453-2.2,3.451,3.451,0,0,1,1.3-1.492,3.7,3.7,0,0,1,2-.531,3.39,3.39,0,0,1,2.363.852,3.043,3.043,0,0,1,1,2.211H41.6a1.992,1.992,0,0,0-.621-1.348A1.932,1.932,0,0,0,39.6,9.578a2.023,2.023,0,0,0-1.707.793,3.724,3.724,0,0,0-.605,2.293v.273a3.65,3.65,0,0,0,.6,2.25A2.033,2.033,0,0,0,39.609,15.977Zm6.344-7.43.039.938A3.122,3.122,0,0,1,48.5,8.391,2.417,2.417,0,0,1,50.914,9.75a3.2,3.2,0,0,1,1.1-.984,3.242,3.242,0,0,1,1.6-.375q2.781,0,2.828,2.945V17H54.992V11.422a1.941,1.941,0,0,0-.414-1.355,1.823,1.823,0,0,0-1.391-.449,1.916,1.916,0,0,0-1.336.48,1.949,1.949,0,0,0-.617,1.293V17H49.781V11.461a1.613,1.613,0,0,0-1.8-1.844,1.934,1.934,0,0,0-1.945,1.211V17H44.586V8.547Zm17.586,6.211a1.064,1.064,0,0,0-.441-.91,4.249,4.249,0,0,0-1.539-.559,7.277,7.277,0,0,1-1.742-.562,2.479,2.479,0,0,1-.953-.781,1.869,1.869,0,0,1-.309-1.078,2.193,2.193,0,0,1,.879-1.758,3.432,3.432,0,0,1,2.246-.719,3.532,3.532,0,0,1,2.332.742,2.357,2.357,0,0,1,.895,1.9H63.453a1.3,1.3,0,0,0-.5-1.023,1.888,1.888,0,0,0-1.27-.43,1.976,1.976,0,0,0-1.234.344,1.082,1.082,0,0,0-.445.9.877.877,0,0,0,.414.789,5.1,5.1,0,0,0,1.5.508,7.8,7.8,0,0,1,1.754.578,2.558,2.558,0,0,1,1,.809,1.988,1.988,0,0,1,.324,1.152,2.163,2.163,0,0,1-.906,1.816,3.8,3.8,0,0,1-2.352.684,4.257,4.257,0,0,1-1.8-.359,2.922,2.922,0,0,1-1.223-1,2.42,2.42,0,0,1-.441-1.395h1.445a1.5,1.5,0,0,0,.582,1.152,2.258,2.258,0,0,0,1.434.426,2.331,2.331,0,0,0,1.316-.332A1.02,1.02,0,0,0,63.539,14.758Z" transform="translate(834.355 3224.087)" fill="#12263f"/>
    <path id="Trazado_896174" data-name="Trazado 896174" d="M8.078,12.148a6.61,6.61,0,0,1-.867,3.773A3.084,3.084,0,0,1,4.5,17.156a3.107,3.107,0,0,1-2.7-1.207A6.274,6.274,0,0,1,.9,12.344v-1.93a6.463,6.463,0,0,1,.867-3.727A3.108,3.108,0,0,1,4.484,5.469a3.136,3.136,0,0,1,2.7,1.176,6.237,6.237,0,0,1,.891,3.629ZM6.633,10.172A5.3,5.3,0,0,0,6.117,7.5a1.775,1.775,0,0,0-1.633-.84,1.751,1.751,0,0,0-1.617.836,5.171,5.171,0,0,0-.523,2.57v2.313A5.381,5.381,0,0,0,2.879,15.1a1.771,1.771,0,0,0,1.621.879,1.747,1.747,0,0,0,1.59-.828,5.186,5.186,0,0,0,.543-2.609Zm3.477,6.07a.905.905,0,0,1,.223-.625.848.848,0,0,1,.668-.25.874.874,0,0,1,.676.25.887.887,0,0,1,.23.625.839.839,0,0,1-.23.6.89.89,0,0,1-.676.242.8.8,0,0,1-.891-.844ZM21.594,17H14.141V15.961l3.938-4.375a9.354,9.354,0,0,0,1.207-1.613,2.693,2.693,0,0,0,.332-1.285,2.041,2.041,0,0,0-.539-1.461,1.885,1.885,0,0,0-1.437-.57,2.232,2.232,0,0,0-1.676.613,2.343,2.343,0,0,0-.6,1.707H13.922a3.355,3.355,0,0,1,1.012-2.539,3.751,3.751,0,0,1,2.707-.969,3.6,3.6,0,0,1,2.508.832,2.838,2.838,0,0,1,.922,2.215q0,1.68-2.141,4l-3.047,3.3h5.711Zm2.2-5.7.578-5.672H30.2V6.961h-4.6l-.344,3.1a3.671,3.671,0,0,1,1.9-.492A3.138,3.138,0,0,1,29.617,10.6a4.026,4.026,0,0,1,.914,2.777,3.886,3.886,0,0,1-.949,2.77,3.46,3.46,0,0,1-2.652,1.012,3.6,3.6,0,0,1-2.461-.836,3.337,3.337,0,0,1-1.086-2.312H24.75a2.3,2.3,0,0,0,.7,1.473,2.162,2.162,0,0,0,1.484.5,1.95,1.95,0,0,0,1.582-.687,2.874,2.874,0,0,0,.574-1.9,2.638,2.638,0,0,0-.621-1.832,2.113,2.113,0,0,0-1.652-.691,2.383,2.383,0,0,0-1.484.414l-.383.313Zm15.82,4.68a2.082,2.082,0,0,0,1.352-.469,1.649,1.649,0,0,0,.641-1.172h1.367a2.621,2.621,0,0,1-.5,1.383,3.293,3.293,0,0,1-1.23,1.047,3.55,3.55,0,0,1-1.629.391A3.482,3.482,0,0,1,36.863,16a4.59,4.59,0,0,1-1.02-3.152v-.242a5.089,5.089,0,0,1,.453-2.2,3.451,3.451,0,0,1,1.3-1.492,3.7,3.7,0,0,1,2-.531,3.39,3.39,0,0,1,2.363.852,3.043,3.043,0,0,1,1,2.211H41.6a1.992,1.992,0,0,0-.621-1.348A1.932,1.932,0,0,0,39.6,9.578a2.023,2.023,0,0,0-1.707.793,3.724,3.724,0,0,0-.605,2.293v.273a3.65,3.65,0,0,0,.6,2.25A2.033,2.033,0,0,0,39.609,15.977Zm6.344-7.43.039.938A3.122,3.122,0,0,1,48.5,8.391,2.417,2.417,0,0,1,50.914,9.75a3.2,3.2,0,0,1,1.1-.984,3.242,3.242,0,0,1,1.6-.375q2.781,0,2.828,2.945V17H54.992V11.422a1.941,1.941,0,0,0-.414-1.355,1.823,1.823,0,0,0-1.391-.449,1.916,1.916,0,0,0-1.336.48,1.949,1.949,0,0,0-.617,1.293V17H49.781V11.461a1.613,1.613,0,0,0-1.8-1.844,1.934,1.934,0,0,0-1.945,1.211V17H44.586V8.547Zm17.586,6.211a1.064,1.064,0,0,0-.441-.91,4.249,4.249,0,0,0-1.539-.559,7.277,7.277,0,0,1-1.742-.562,2.479,2.479,0,0,1-.953-.781,1.869,1.869,0,0,1-.309-1.078,2.193,2.193,0,0,1,.879-1.758,3.432,3.432,0,0,1,2.246-.719,3.532,3.532,0,0,1,2.332.742,2.357,2.357,0,0,1,.895,1.9H63.453a1.3,1.3,0,0,0-.5-1.023,1.888,1.888,0,0,0-1.27-.43,1.976,1.976,0,0,0-1.234.344,1.082,1.082,0,0,0-.445.9.877.877,0,0,0,.414.789,5.1,5.1,0,0,0,1.5.508,7.8,7.8,0,0,1,1.754.578,2.558,2.558,0,0,1,1,.809,1.988,1.988,0,0,1,.324,1.152,2.163,2.163,0,0,1-.906,1.816,3.8,3.8,0,0,1-2.352.684,4.257,4.257,0,0,1-1.8-.359,2.922,2.922,0,0,1-1.223-1,2.42,2.42,0,0,1-.441-1.395h1.445a1.5,1.5,0,0,0,.582,1.152,2.258,2.258,0,0,0,1.434.426,2.331,2.331,0,0,0,1.316-.332A1.02,1.02,0,0,0,63.539,14.758Z" transform="translate(745.211 3250.087)" fill="#12263f"/>
    <path id="Trazado_896175" data-name="Trazado 896175" d="M8.078,12.148a6.61,6.61,0,0,1-.867,3.773A3.084,3.084,0,0,1,4.5,17.156a3.107,3.107,0,0,1-2.7-1.207A6.274,6.274,0,0,1,.9,12.344v-1.93a6.463,6.463,0,0,1,.867-3.727A3.108,3.108,0,0,1,4.484,5.469a3.136,3.136,0,0,1,2.7,1.176,6.237,6.237,0,0,1,.891,3.629ZM6.633,10.172A5.3,5.3,0,0,0,6.117,7.5a1.775,1.775,0,0,0-1.633-.84,1.751,1.751,0,0,0-1.617.836,5.171,5.171,0,0,0-.523,2.57v2.313A5.381,5.381,0,0,0,2.879,15.1a1.771,1.771,0,0,0,1.621.879,1.747,1.747,0,0,0,1.59-.828,5.186,5.186,0,0,0,.543-2.609Zm3.477,6.07a.905.905,0,0,1,.223-.625.848.848,0,0,1,.668-.25.874.874,0,0,1,.676.25.887.887,0,0,1,.23.625.839.839,0,0,1-.23.6.89.89,0,0,1-.676.242.8.8,0,0,1-.891-.844ZM21.594,17H14.141V15.961l3.938-4.375a9.354,9.354,0,0,0,1.207-1.613,2.693,2.693,0,0,0,.332-1.285,2.041,2.041,0,0,0-.539-1.461,1.885,1.885,0,0,0-1.437-.57,2.232,2.232,0,0,0-1.676.613,2.343,2.343,0,0,0-.6,1.707H13.922a3.355,3.355,0,0,1,1.012-2.539,3.751,3.751,0,0,1,2.707-.969,3.6,3.6,0,0,1,2.508.832,2.838,2.838,0,0,1,.922,2.215q0,1.68-2.141,4l-3.047,3.3h5.711Zm2.2-5.7.578-5.672H30.2V6.961h-4.6l-.344,3.1a3.671,3.671,0,0,1,1.9-.492A3.138,3.138,0,0,1,29.617,10.6a4.026,4.026,0,0,1,.914,2.777,3.886,3.886,0,0,1-.949,2.77,3.46,3.46,0,0,1-2.652,1.012,3.6,3.6,0,0,1-2.461-.836,3.337,3.337,0,0,1-1.086-2.312H24.75a2.3,2.3,0,0,0,.7,1.473,2.162,2.162,0,0,0,1.484.5,1.95,1.95,0,0,0,1.582-.687,2.874,2.874,0,0,0,.574-1.9,2.638,2.638,0,0,0-.621-1.832,2.113,2.113,0,0,0-1.652-.691,2.383,2.383,0,0,0-1.484.414l-.383.313Zm15.82,4.68a2.082,2.082,0,0,0,1.352-.469,1.649,1.649,0,0,0,.641-1.172h1.367a2.621,2.621,0,0,1-.5,1.383,3.293,3.293,0,0,1-1.23,1.047,3.55,3.55,0,0,1-1.629.391A3.482,3.482,0,0,1,36.863,16a4.59,4.59,0,0,1-1.02-3.152v-.242a5.089,5.089,0,0,1,.453-2.2,3.451,3.451,0,0,1,1.3-1.492,3.7,3.7,0,0,1,2-.531,3.39,3.39,0,0,1,2.363.852,3.043,3.043,0,0,1,1,2.211H41.6a1.992,1.992,0,0,0-.621-1.348A1.932,1.932,0,0,0,39.6,9.578a2.023,2.023,0,0,0-1.707.793,3.724,3.724,0,0,0-.605,2.293v.273a3.65,3.65,0,0,0,.6,2.25A2.033,2.033,0,0,0,39.609,15.977Zm6.344-7.43.039.938A3.122,3.122,0,0,1,48.5,8.391,2.417,2.417,0,0,1,50.914,9.75a3.2,3.2,0,0,1,1.1-.984,3.242,3.242,0,0,1,1.6-.375q2.781,0,2.828,2.945V17H54.992V11.422a1.941,1.941,0,0,0-.414-1.355,1.823,1.823,0,0,0-1.391-.449,1.916,1.916,0,0,0-1.336.48,1.949,1.949,0,0,0-.617,1.293V17H49.781V11.461a1.613,1.613,0,0,0-1.8-1.844,1.934,1.934,0,0,0-1.945,1.211V17H44.586V8.547Zm17.586,6.211a1.064,1.064,0,0,0-.441-.91,4.249,4.249,0,0,0-1.539-.559,7.277,7.277,0,0,1-1.742-.562,2.479,2.479,0,0,1-.953-.781,1.869,1.869,0,0,1-.309-1.078,2.193,2.193,0,0,1,.879-1.758,3.432,3.432,0,0,1,2.246-.719,3.532,3.532,0,0,1,2.332.742,2.357,2.357,0,0,1,.895,1.9H63.453a1.3,1.3,0,0,0-.5-1.023,1.888,1.888,0,0,0-1.27-.43,1.976,1.976,0,0,0-1.234.344,1.082,1.082,0,0,0-.445.9.877.877,0,0,0,.414.789,5.1,5.1,0,0,0,1.5.508,7.8,7.8,0,0,1,1.754.578,2.558,2.558,0,0,1,1,.809,1.988,1.988,0,0,1,.324,1.152,2.163,2.163,0,0,1-.906,1.816,3.8,3.8,0,0,1-2.352.684,4.257,4.257,0,0,1-1.8-.359,2.922,2.922,0,0,1-1.223-1,2.42,2.42,0,0,1-.441-1.395h1.445a1.5,1.5,0,0,0,.582,1.152,2.258,2.258,0,0,0,1.434.426,2.331,2.331,0,0,0,1.316-.332A1.02,1.02,0,0,0,63.539,14.758Z" transform="translate(780.355 3282.677)" fill="#12263f"/>
    <path id="Trazado_896176" data-name="Trazado 896176" d="M8.078,12.148a6.61,6.61,0,0,1-.867,3.773A3.084,3.084,0,0,1,4.5,17.156a3.107,3.107,0,0,1-2.7-1.207A6.274,6.274,0,0,1,.9,12.344v-1.93a6.463,6.463,0,0,1,.867-3.727A3.108,3.108,0,0,1,4.484,5.469a3.136,3.136,0,0,1,2.7,1.176,6.237,6.237,0,0,1,.891,3.629ZM6.633,10.172A5.3,5.3,0,0,0,6.117,7.5a1.775,1.775,0,0,0-1.633-.84,1.751,1.751,0,0,0-1.617.836,5.171,5.171,0,0,0-.523,2.57v2.313A5.381,5.381,0,0,0,2.879,15.1a1.771,1.771,0,0,0,1.621.879,1.747,1.747,0,0,0,1.59-.828,5.186,5.186,0,0,0,.543-2.609Zm3.477,6.07a.905.905,0,0,1,.223-.625.848.848,0,0,1,.668-.25.874.874,0,0,1,.676.25.887.887,0,0,1,.23.625.839.839,0,0,1-.23.6.89.89,0,0,1-.676.242.8.8,0,0,1-.891-.844ZM21.594,17H14.141V15.961l3.938-4.375a9.354,9.354,0,0,0,1.207-1.613,2.693,2.693,0,0,0,.332-1.285,2.041,2.041,0,0,0-.539-1.461,1.885,1.885,0,0,0-1.437-.57,2.232,2.232,0,0,0-1.676.613,2.343,2.343,0,0,0-.6,1.707H13.922a3.355,3.355,0,0,1,1.012-2.539,3.751,3.751,0,0,1,2.707-.969,3.6,3.6,0,0,1,2.508.832,2.838,2.838,0,0,1,.922,2.215q0,1.68-2.141,4l-3.047,3.3h5.711Zm2.2-5.7.578-5.672H30.2V6.961h-4.6l-.344,3.1a3.671,3.671,0,0,1,1.9-.492A3.138,3.138,0,0,1,29.617,10.6a4.026,4.026,0,0,1,.914,2.777,3.886,3.886,0,0,1-.949,2.77,3.46,3.46,0,0,1-2.652,1.012,3.6,3.6,0,0,1-2.461-.836,3.337,3.337,0,0,1-1.086-2.312H24.75a2.3,2.3,0,0,0,.7,1.473,2.162,2.162,0,0,0,1.484.5,1.95,1.95,0,0,0,1.582-.687,2.874,2.874,0,0,0,.574-1.9,2.638,2.638,0,0,0-.621-1.832,2.113,2.113,0,0,0-1.652-.691,2.383,2.383,0,0,0-1.484.414l-.383.313Zm15.82,4.68a2.082,2.082,0,0,0,1.352-.469,1.649,1.649,0,0,0,.641-1.172h1.367a2.621,2.621,0,0,1-.5,1.383,3.293,3.293,0,0,1-1.23,1.047,3.55,3.55,0,0,1-1.629.391A3.482,3.482,0,0,1,36.863,16a4.59,4.59,0,0,1-1.02-3.152v-.242a5.089,5.089,0,0,1,.453-2.2,3.451,3.451,0,0,1,1.3-1.492,3.7,3.7,0,0,1,2-.531,3.39,3.39,0,0,1,2.363.852,3.043,3.043,0,0,1,1,2.211H41.6a1.992,1.992,0,0,0-.621-1.348A1.932,1.932,0,0,0,39.6,9.578a2.023,2.023,0,0,0-1.707.793,3.724,3.724,0,0,0-.605,2.293v.273a3.65,3.65,0,0,0,.6,2.25A2.033,2.033,0,0,0,39.609,15.977Zm6.344-7.43.039.938A3.122,3.122,0,0,1,48.5,8.391,2.417,2.417,0,0,1,50.914,9.75a3.2,3.2,0,0,1,1.1-.984,3.242,3.242,0,0,1,1.6-.375q2.781,0,2.828,2.945V17H54.992V11.422a1.941,1.941,0,0,0-.414-1.355,1.823,1.823,0,0,0-1.391-.449,1.916,1.916,0,0,0-1.336.48,1.949,1.949,0,0,0-.617,1.293V17H49.781V11.461a1.613,1.613,0,0,0-1.8-1.844,1.934,1.934,0,0,0-1.945,1.211V17H44.586V8.547Zm17.586,6.211a1.064,1.064,0,0,0-.441-.91,4.249,4.249,0,0,0-1.539-.559,7.277,7.277,0,0,1-1.742-.562,2.479,2.479,0,0,1-.953-.781,1.869,1.869,0,0,1-.309-1.078,2.193,2.193,0,0,1,.879-1.758,3.432,3.432,0,0,1,2.246-.719,3.532,3.532,0,0,1,2.332.742,2.357,2.357,0,0,1,.895,1.9H63.453a1.3,1.3,0,0,0-.5-1.023,1.888,1.888,0,0,0-1.27-.43,1.976,1.976,0,0,0-1.234.344,1.082,1.082,0,0,0-.445.9.877.877,0,0,0,.414.789,5.1,5.1,0,0,0,1.5.508,7.8,7.8,0,0,1,1.754.578,2.558,2.558,0,0,1,1,.809,1.988,1.988,0,0,1,.324,1.152,2.163,2.163,0,0,1-.906,1.816,3.8,3.8,0,0,1-2.352.684,4.257,4.257,0,0,1-1.8-.359,2.922,2.922,0,0,1-1.223-1,2.42,2.42,0,0,1-.441-1.395h1.445a1.5,1.5,0,0,0,.582,1.152,2.258,2.258,0,0,0,1.434.426,2.331,2.331,0,0,0,1.316-.332A1.02,1.02,0,0,0,63.539,14.758Z" transform="translate(821.211 3392.677)" fill="#12263f"/>
    <path id="Trazado_896177" data-name="Trazado 896177" d="M7.594,11.977H2.82V17H1.32V5.625H8.367V6.859H2.82V10.75H7.594ZM14.891,17a3.036,3.036,0,0,1-.2-.891,3.225,3.225,0,0,1-2.406,1.047,2.984,2.984,0,0,1-2.051-.707,2.287,2.287,0,0,1-.8-1.793,2.39,2.39,0,0,1,1-2.051,4.733,4.733,0,0,1,2.824-.73h1.406v-.664A1.623,1.623,0,0,0,14.211,10a1.821,1.821,0,0,0-1.336-.449,2.107,2.107,0,0,0-1.3.391,1.151,1.151,0,0,0-.523.945H9.6a2,2,0,0,1,.449-1.223,3.066,3.066,0,0,1,1.219-.934,4.1,4.1,0,0,1,1.691-.344,3.342,3.342,0,0,1,2.289.73,2.635,2.635,0,0,1,.859,2.012v3.891a4.757,4.757,0,0,0,.3,1.852V17Zm-2.4-1.1a2.54,2.54,0,0,0,1.289-.352,2.127,2.127,0,0,0,.883-.914V12.9H13.531q-2.656,0-2.656,1.555a1.316,1.316,0,0,0,.453,1.063A1.742,1.742,0,0,0,12.492,15.9ZM19.945,17H18.5V5h1.445Zm1.961-4.3a4.952,4.952,0,0,1,.922-3.129,3.137,3.137,0,0,1,4.766-.168V5h1.445V17H27.711l-.07-.906a2.943,2.943,0,0,1-2.414,1.063,2.887,2.887,0,0,1-2.395-1.2,5.008,5.008,0,0,1-.926-3.141Zm1.445.164a3.749,3.749,0,0,0,.594,2.25,1.92,1.92,0,0,0,1.641.813A2.108,2.108,0,0,0,27.594,14.7V10.813a2.125,2.125,0,0,0-1.992-1.2,1.929,1.929,0,0,0-1.656.82A4.128,4.128,0,0,0,23.352,12.867ZM36.5,17a3.036,3.036,0,0,1-.2-.891,3.225,3.225,0,0,1-2.406,1.047,2.984,2.984,0,0,1-2.051-.707,2.287,2.287,0,0,1-.8-1.793,2.39,2.39,0,0,1,1-2.051,4.733,4.733,0,0,1,2.824-.73h1.406v-.664A1.623,1.623,0,0,0,35.82,10a1.821,1.821,0,0,0-1.336-.449,2.107,2.107,0,0,0-1.3.391,1.151,1.151,0,0,0-.523.945H31.211a2,2,0,0,1,.449-1.223,3.066,3.066,0,0,1,1.219-.934,4.1,4.1,0,0,1,1.691-.344,3.342,3.342,0,0,1,2.289.73,2.635,2.635,0,0,1,.859,2.012v3.891a4.757,4.757,0,0,0,.3,1.852V17Zm-2.4-1.1a2.54,2.54,0,0,0,1.289-.352,2.127,2.127,0,0,0,.883-.914V12.9H35.141q-2.656,0-2.656,1.555a1.316,1.316,0,0,0,.453,1.063A1.742,1.742,0,0,0,34.1,15.9Z" transform="translate(714.211 3579.214) rotate(-90)" fill="#12263f"/>
    <path id="Trazado_896178" data-name="Trazado 896178" d="M5.7,17H4.242V7.367L1.328,8.438V7.125L5.469,5.57H5.7Zm11.367-4.852a6.61,6.61,0,0,1-.867,3.773,3.084,3.084,0,0,1-2.711,1.234,3.107,3.107,0,0,1-2.7-1.207,6.274,6.274,0,0,1-.906-3.605v-1.93a6.463,6.463,0,0,1,.867-3.727,3.108,3.108,0,0,1,2.719-1.219,3.136,3.136,0,0,1,2.7,1.176,6.237,6.237,0,0,1,.891,3.629Zm-1.445-1.977A5.3,5.3,0,0,0,15.1,7.5a1.775,1.775,0,0,0-1.633-.84,1.751,1.751,0,0,0-1.617.836,5.171,5.171,0,0,0-.523,2.57v2.313a5.381,5.381,0,0,0,.535,2.723,1.771,1.771,0,0,0,1.621.879,1.747,1.747,0,0,0,1.59-.828,5.186,5.186,0,0,0,.543-2.609Z" transform="translate(738.211 3569.214) rotate(-90)" fill="#12263f"/>
    <path id="Trazado_896179" data-name="Trazado 896179" d="M8.078,12.148a6.61,6.61,0,0,1-.867,3.773A3.084,3.084,0,0,1,4.5,17.156a3.107,3.107,0,0,1-2.7-1.207A6.274,6.274,0,0,1,.9,12.344v-1.93a6.463,6.463,0,0,1,.867-3.727A3.108,3.108,0,0,1,4.484,5.469a3.136,3.136,0,0,1,2.7,1.176,6.237,6.237,0,0,1,.891,3.629ZM6.633,10.172A5.3,5.3,0,0,0,6.117,7.5a1.775,1.775,0,0,0-1.633-.84,1.751,1.751,0,0,0-1.617.836,5.171,5.171,0,0,0-.523,2.57v2.313A5.381,5.381,0,0,0,2.879,15.1a1.771,1.771,0,0,0,1.621.879,1.747,1.747,0,0,0,1.59-.828,5.186,5.186,0,0,0,.543-2.609Zm3.477,6.07a.905.905,0,0,1,.223-.625.848.848,0,0,1,.668-.25.874.874,0,0,1,.676.25.887.887,0,0,1,.23.625.839.839,0,0,1-.23.6.89.89,0,0,1-.676.242.8.8,0,0,1-.891-.844ZM21.594,17H14.141V15.961l3.938-4.375a9.354,9.354,0,0,0,1.207-1.613,2.693,2.693,0,0,0,.332-1.285,2.041,2.041,0,0,0-.539-1.461,1.885,1.885,0,0,0-1.437-.57,2.232,2.232,0,0,0-1.676.613,2.343,2.343,0,0,0-.6,1.707H13.922a3.355,3.355,0,0,1,1.012-2.539,3.751,3.751,0,0,1,2.707-.969,3.6,3.6,0,0,1,2.508.832,2.838,2.838,0,0,1,.922,2.215q0,1.68-2.141,4l-3.047,3.3h5.711Zm2.2-5.7.578-5.672H30.2V6.961h-4.6l-.344,3.1a3.671,3.671,0,0,1,1.9-.492A3.138,3.138,0,0,1,29.617,10.6a4.026,4.026,0,0,1,.914,2.777,3.886,3.886,0,0,1-.949,2.77,3.46,3.46,0,0,1-2.652,1.012,3.6,3.6,0,0,1-2.461-.836,3.337,3.337,0,0,1-1.086-2.312H24.75a2.3,2.3,0,0,0,.7,1.473,2.162,2.162,0,0,0,1.484.5,1.95,1.95,0,0,0,1.582-.687,2.874,2.874,0,0,0,.574-1.9,2.638,2.638,0,0,0-.621-1.832,2.113,2.113,0,0,0-1.652-.691,2.383,2.383,0,0,0-1.484.414l-.383.313Zm15.82,4.68a2.082,2.082,0,0,0,1.352-.469,1.649,1.649,0,0,0,.641-1.172h1.367a2.621,2.621,0,0,1-.5,1.383,3.293,3.293,0,0,1-1.23,1.047,3.55,3.55,0,0,1-1.629.391A3.482,3.482,0,0,1,36.863,16a4.59,4.59,0,0,1-1.02-3.152v-.242a5.089,5.089,0,0,1,.453-2.2,3.451,3.451,0,0,1,1.3-1.492,3.7,3.7,0,0,1,2-.531,3.39,3.39,0,0,1,2.363.852,3.043,3.043,0,0,1,1,2.211H41.6a1.992,1.992,0,0,0-.621-1.348A1.932,1.932,0,0,0,39.6,9.578a2.023,2.023,0,0,0-1.707.793,3.724,3.724,0,0,0-.605,2.293v.273a3.65,3.65,0,0,0,.6,2.25A2.033,2.033,0,0,0,39.609,15.977Zm6.344-7.43.039.938A3.122,3.122,0,0,1,48.5,8.391,2.417,2.417,0,0,1,50.914,9.75a3.2,3.2,0,0,1,1.1-.984,3.242,3.242,0,0,1,1.6-.375q2.781,0,2.828,2.945V17H54.992V11.422a1.941,1.941,0,0,0-.414-1.355,1.823,1.823,0,0,0-1.391-.449,1.916,1.916,0,0,0-1.336.48,1.949,1.949,0,0,0-.617,1.293V17H49.781V11.461a1.613,1.613,0,0,0-1.8-1.844,1.934,1.934,0,0,0-1.945,1.211V17H44.586V8.547Zm17.586,6.211a1.064,1.064,0,0,0-.441-.91,4.249,4.249,0,0,0-1.539-.559,7.277,7.277,0,0,1-1.742-.562,2.479,2.479,0,0,1-.953-.781,1.869,1.869,0,0,1-.309-1.078,2.193,2.193,0,0,1,.879-1.758,3.432,3.432,0,0,1,2.246-.719,3.532,3.532,0,0,1,2.332.742,2.357,2.357,0,0,1,.895,1.9H63.453a1.3,1.3,0,0,0-.5-1.023,1.888,1.888,0,0,0-1.27-.43,1.976,1.976,0,0,0-1.234.344,1.082,1.082,0,0,0-.445.9.877.877,0,0,0,.414.789,5.1,5.1,0,0,0,1.5.508,7.8,7.8,0,0,1,1.754.578,2.558,2.558,0,0,1,1,.809,1.988,1.988,0,0,1,.324,1.152,2.163,2.163,0,0,1-.906,1.816,3.8,3.8,0,0,1-2.352.684,4.257,4.257,0,0,1-1.8-.359,2.922,2.922,0,0,1-1.223-1,2.42,2.42,0,0,1-.441-1.395h1.445a1.5,1.5,0,0,0,.582,1.152,2.258,2.258,0,0,0,1.434.426,2.331,2.331,0,0,0,1.316-.332A1.02,1.02,0,0,0,63.539,14.758Z" transform="translate(885.355 3810.464)" fill="#12263f"/>
    <path id="Trazado_896180" data-name="Trazado 896180" d="M8.078,12.148a6.61,6.61,0,0,1-.867,3.773A3.084,3.084,0,0,1,4.5,17.156a3.107,3.107,0,0,1-2.7-1.207A6.274,6.274,0,0,1,.9,12.344v-1.93a6.463,6.463,0,0,1,.867-3.727A3.108,3.108,0,0,1,4.484,5.469a3.136,3.136,0,0,1,2.7,1.176,6.237,6.237,0,0,1,.891,3.629ZM6.633,10.172A5.3,5.3,0,0,0,6.117,7.5a1.775,1.775,0,0,0-1.633-.84,1.751,1.751,0,0,0-1.617.836,5.171,5.171,0,0,0-.523,2.57v2.313A5.381,5.381,0,0,0,2.879,15.1a1.771,1.771,0,0,0,1.621.879,1.747,1.747,0,0,0,1.59-.828,5.186,5.186,0,0,0,.543-2.609Zm3.477,6.07a.905.905,0,0,1,.223-.625.848.848,0,0,1,.668-.25.874.874,0,0,1,.676.25.887.887,0,0,1,.23.625.839.839,0,0,1-.23.6.89.89,0,0,1-.676.242.8.8,0,0,1-.891-.844ZM21.594,17H14.141V15.961l3.938-4.375a9.354,9.354,0,0,0,1.207-1.613,2.693,2.693,0,0,0,.332-1.285,2.041,2.041,0,0,0-.539-1.461,1.885,1.885,0,0,0-1.437-.57,2.232,2.232,0,0,0-1.676.613,2.343,2.343,0,0,0-.6,1.707H13.922a3.355,3.355,0,0,1,1.012-2.539,3.751,3.751,0,0,1,2.707-.969,3.6,3.6,0,0,1,2.508.832,2.838,2.838,0,0,1,.922,2.215q0,1.68-2.141,4l-3.047,3.3h5.711Zm2.2-5.7.578-5.672H30.2V6.961h-4.6l-.344,3.1a3.671,3.671,0,0,1,1.9-.492A3.138,3.138,0,0,1,29.617,10.6a4.026,4.026,0,0,1,.914,2.777,3.886,3.886,0,0,1-.949,2.77,3.46,3.46,0,0,1-2.652,1.012,3.6,3.6,0,0,1-2.461-.836,3.337,3.337,0,0,1-1.086-2.312H24.75a2.3,2.3,0,0,0,.7,1.473,2.162,2.162,0,0,0,1.484.5,1.95,1.95,0,0,0,1.582-.687,2.874,2.874,0,0,0,.574-1.9,2.638,2.638,0,0,0-.621-1.832,2.113,2.113,0,0,0-1.652-.691,2.383,2.383,0,0,0-1.484.414l-.383.313Zm15.82,4.68a2.082,2.082,0,0,0,1.352-.469,1.649,1.649,0,0,0,.641-1.172h1.367a2.621,2.621,0,0,1-.5,1.383,3.293,3.293,0,0,1-1.23,1.047,3.55,3.55,0,0,1-1.629.391A3.482,3.482,0,0,1,36.863,16a4.59,4.59,0,0,1-1.02-3.152v-.242a5.089,5.089,0,0,1,.453-2.2,3.451,3.451,0,0,1,1.3-1.492,3.7,3.7,0,0,1,2-.531,3.39,3.39,0,0,1,2.363.852,3.043,3.043,0,0,1,1,2.211H41.6a1.992,1.992,0,0,0-.621-1.348A1.932,1.932,0,0,0,39.6,9.578a2.023,2.023,0,0,0-1.707.793,3.724,3.724,0,0,0-.605,2.293v.273a3.65,3.65,0,0,0,.6,2.25A2.033,2.033,0,0,0,39.609,15.977Zm6.344-7.43.039.938A3.122,3.122,0,0,1,48.5,8.391,2.417,2.417,0,0,1,50.914,9.75a3.2,3.2,0,0,1,1.1-.984,3.242,3.242,0,0,1,1.6-.375q2.781,0,2.828,2.945V17H54.992V11.422a1.941,1.941,0,0,0-.414-1.355,1.823,1.823,0,0,0-1.391-.449,1.916,1.916,0,0,0-1.336.48,1.949,1.949,0,0,0-.617,1.293V17H49.781V11.461a1.613,1.613,0,0,0-1.8-1.844,1.934,1.934,0,0,0-1.945,1.211V17H44.586V8.547Zm17.586,6.211a1.064,1.064,0,0,0-.441-.91,4.249,4.249,0,0,0-1.539-.559,7.277,7.277,0,0,1-1.742-.562,2.479,2.479,0,0,1-.953-.781,1.869,1.869,0,0,1-.309-1.078,2.193,2.193,0,0,1,.879-1.758,3.432,3.432,0,0,1,2.246-.719,3.532,3.532,0,0,1,2.332.742,2.357,2.357,0,0,1,.895,1.9H63.453a1.3,1.3,0,0,0-.5-1.023,1.888,1.888,0,0,0-1.27-.43,1.976,1.976,0,0,0-1.234.344,1.082,1.082,0,0,0-.445.9.877.877,0,0,0,.414.789,5.1,5.1,0,0,0,1.5.508,7.8,7.8,0,0,1,1.754.578,2.558,2.558,0,0,1,1,.809,1.988,1.988,0,0,1,.324,1.152,2.163,2.163,0,0,1-.906,1.816,3.8,3.8,0,0,1-2.352.684,4.257,4.257,0,0,1-1.8-.359,2.922,2.922,0,0,1-1.223-1,2.42,2.42,0,0,1-.441-1.395h1.445a1.5,1.5,0,0,0,.582,1.152,2.258,2.258,0,0,0,1.434.426,2.331,2.331,0,0,0,1.316-.332A1.02,1.02,0,0,0,63.539,14.758Z" transform="translate(629.711 3810.464)" fill="#12263f"/>
    <path id="Trazado_896181" data-name="Trazado 896181" d="M5.7,17H4.242V7.367L1.328,8.438V7.125L5.469,5.57H5.7ZM17.43,15.977a2.082,2.082,0,0,0,1.352-.469,1.649,1.649,0,0,0,.641-1.172h1.367a2.621,2.621,0,0,1-.5,1.383,3.293,3.293,0,0,1-1.23,1.047,3.55,3.55,0,0,1-1.629.391A3.482,3.482,0,0,1,14.684,16a4.59,4.59,0,0,1-1.02-3.152v-.242a5.089,5.089,0,0,1,.453-2.2,3.451,3.451,0,0,1,1.3-1.492,3.7,3.7,0,0,1,2-.531,3.39,3.39,0,0,1,2.363.852,3.043,3.043,0,0,1,1,2.211H19.422a1.992,1.992,0,0,0-.621-1.348,1.932,1.932,0,0,0-1.379-.527,2.023,2.023,0,0,0-1.707.793,3.724,3.724,0,0,0-.605,2.293v.273a3.65,3.65,0,0,0,.6,2.25A2.033,2.033,0,0,0,17.43,15.977Zm6.344-7.43.039.938A3.122,3.122,0,0,1,26.32,8.391,2.417,2.417,0,0,1,28.734,9.75a3.2,3.2,0,0,1,1.1-.984,3.242,3.242,0,0,1,1.6-.375q2.781,0,2.828,2.945V17H32.813V11.422a1.941,1.941,0,0,0-.414-1.355,1.823,1.823,0,0,0-1.391-.449,1.916,1.916,0,0,0-1.336.48,1.949,1.949,0,0,0-.617,1.293V17H27.6V11.461a1.613,1.613,0,0,0-1.8-1.844,1.934,1.934,0,0,0-1.945,1.211V17H22.406V8.547Z" transform="translate(919.355 3287.177)" fill="#12263f"/>
    <path id="Trazado_896182" data-name="Trazado 896182" d="M5.7,17H4.242V7.367L1.328,8.438V7.125L5.469,5.57H5.7ZM17.43,15.977a2.082,2.082,0,0,0,1.352-.469,1.649,1.649,0,0,0,.641-1.172h1.367a2.621,2.621,0,0,1-.5,1.383,3.293,3.293,0,0,1-1.23,1.047,3.55,3.55,0,0,1-1.629.391A3.482,3.482,0,0,1,14.684,16a4.59,4.59,0,0,1-1.02-3.152v-.242a5.089,5.089,0,0,1,.453-2.2,3.451,3.451,0,0,1,1.3-1.492,3.7,3.7,0,0,1,2-.531,3.39,3.39,0,0,1,2.363.852,3.043,3.043,0,0,1,1,2.211H19.422a1.992,1.992,0,0,0-.621-1.348,1.932,1.932,0,0,0-1.379-.527,2.023,2.023,0,0,0-1.707.793,3.724,3.724,0,0,0-.605,2.293v.273a3.65,3.65,0,0,0,.6,2.25A2.033,2.033,0,0,0,17.43,15.977Zm6.344-7.43.039.938A3.122,3.122,0,0,1,26.32,8.391,2.417,2.417,0,0,1,28.734,9.75a3.2,3.2,0,0,1,1.1-.984,3.242,3.242,0,0,1,1.6-.375q2.781,0,2.828,2.945V17H32.813V11.422a1.941,1.941,0,0,0-.414-1.355,1.823,1.823,0,0,0-1.391-.449,1.916,1.916,0,0,0-1.336.48,1.949,1.949,0,0,0-.617,1.293V17H27.6V11.461a1.613,1.613,0,0,0-1.8-1.844,1.934,1.934,0,0,0-1.945,1.211V17H22.406V8.547Z" transform="translate(944.355 3446.464)" fill="#12263f"/>
    <path id="Trazado_896183" data-name="Trazado 896183" d="M5.7,17H4.242V7.367L1.328,8.438V7.125L5.469,5.57H5.7ZM17.43,15.977a2.082,2.082,0,0,0,1.352-.469,1.649,1.649,0,0,0,.641-1.172h1.367a2.621,2.621,0,0,1-.5,1.383,3.293,3.293,0,0,1-1.23,1.047,3.55,3.55,0,0,1-1.629.391A3.482,3.482,0,0,1,14.684,16a4.59,4.59,0,0,1-1.02-3.152v-.242a5.089,5.089,0,0,1,.453-2.2,3.451,3.451,0,0,1,1.3-1.492,3.7,3.7,0,0,1,2-.531,3.39,3.39,0,0,1,2.363.852,3.043,3.043,0,0,1,1,2.211H19.422a1.992,1.992,0,0,0-.621-1.348,1.932,1.932,0,0,0-1.379-.527,2.023,2.023,0,0,0-1.707.793,3.724,3.724,0,0,0-.605,2.293v.273a3.65,3.65,0,0,0,.6,2.25A2.033,2.033,0,0,0,17.43,15.977Zm6.344-7.43.039.938A3.122,3.122,0,0,1,26.32,8.391,2.417,2.417,0,0,1,28.734,9.75a3.2,3.2,0,0,1,1.1-.984,3.242,3.242,0,0,1,1.6-.375q2.781,0,2.828,2.945V17H32.813V11.422a1.941,1.941,0,0,0-.414-1.355,1.823,1.823,0,0,0-1.391-.449,1.916,1.916,0,0,0-1.336.48,1.949,1.949,0,0,0-.617,1.293V17H27.6V11.461a1.613,1.613,0,0,0-1.8-1.844,1.934,1.934,0,0,0-1.945,1.211V17H22.406V8.547Z" transform="translate(936.355 3766.177)" fill="#12263f"/>
    <path id="Trazado_896184" data-name="Trazado 896184" d="M8.078,12.148a6.61,6.61,0,0,1-.867,3.773A3.084,3.084,0,0,1,4.5,17.156a3.107,3.107,0,0,1-2.7-1.207A6.274,6.274,0,0,1,.9,12.344v-1.93a6.463,6.463,0,0,1,.867-3.727A3.108,3.108,0,0,1,4.484,5.469a3.136,3.136,0,0,1,2.7,1.176,6.237,6.237,0,0,1,.891,3.629ZM6.633,10.172A5.3,5.3,0,0,0,6.117,7.5a1.775,1.775,0,0,0-1.633-.84,1.751,1.751,0,0,0-1.617.836,5.171,5.171,0,0,0-.523,2.57v2.313A5.381,5.381,0,0,0,2.879,15.1a1.771,1.771,0,0,0,1.621.879,1.747,1.747,0,0,0,1.59-.828,5.186,5.186,0,0,0,.543-2.609Z" transform="translate(628.066 3766.177)" fill="#12263f"/>
    <path id="Trazado_896185" data-name="Trazado 896185" d="M8.078,12.148a6.61,6.61,0,0,1-.867,3.773A3.084,3.084,0,0,1,4.5,17.156a3.107,3.107,0,0,1-2.7-1.207A6.274,6.274,0,0,1,.9,12.344v-1.93a6.463,6.463,0,0,1,.867-3.727A3.108,3.108,0,0,1,4.484,5.469a3.136,3.136,0,0,1,2.7,1.176,6.237,6.237,0,0,1,.891,3.629ZM6.633,10.172A5.3,5.3,0,0,0,6.117,7.5a1.775,1.775,0,0,0-1.633-.84,1.751,1.751,0,0,0-1.617.836,5.171,5.171,0,0,0-.523,2.57v2.313A5.381,5.381,0,0,0,2.879,15.1a1.771,1.771,0,0,0,1.621.879,1.747,1.747,0,0,0,1.59-.828,5.186,5.186,0,0,0,.543-2.609Zm3.477,6.07a.905.905,0,0,1,.223-.625.848.848,0,0,1,.668-.25.874.874,0,0,1,.676.25.887.887,0,0,1,.23.625.839.839,0,0,1-.23.6.89.89,0,0,1-.676.242.8.8,0,0,1-.891-.844ZM21.594,17H14.141V15.961l3.938-4.375a9.354,9.354,0,0,0,1.207-1.613,2.693,2.693,0,0,0,.332-1.285,2.041,2.041,0,0,0-.539-1.461,1.885,1.885,0,0,0-1.437-.57,2.232,2.232,0,0,0-1.676.613,2.343,2.343,0,0,0-.6,1.707H13.922a3.355,3.355,0,0,1,1.012-2.539,3.751,3.751,0,0,1,2.707-.969,3.6,3.6,0,0,1,2.508.832,2.838,2.838,0,0,1,.922,2.215q0,1.68-2.141,4l-3.047,3.3h5.711Zm2.2-5.7.578-5.672H30.2V6.961h-4.6l-.344,3.1a3.671,3.671,0,0,1,1.9-.492A3.138,3.138,0,0,1,29.617,10.6a4.026,4.026,0,0,1,.914,2.777,3.886,3.886,0,0,1-.949,2.77,3.46,3.46,0,0,1-2.652,1.012,3.6,3.6,0,0,1-2.461-.836,3.337,3.337,0,0,1-1.086-2.312H24.75a2.3,2.3,0,0,0,.7,1.473,2.162,2.162,0,0,0,1.484.5,1.95,1.95,0,0,0,1.582-.687,2.874,2.874,0,0,0,.574-1.9,2.638,2.638,0,0,0-.621-1.832,2.113,2.113,0,0,0-1.652-.691,2.383,2.383,0,0,0-1.484.414l-.383.313Zm15.82,4.68a2.082,2.082,0,0,0,1.352-.469,1.649,1.649,0,0,0,.641-1.172h1.367a2.621,2.621,0,0,1-.5,1.383,3.293,3.293,0,0,1-1.23,1.047,3.55,3.55,0,0,1-1.629.391A3.482,3.482,0,0,1,36.863,16a4.59,4.59,0,0,1-1.02-3.152v-.242a5.089,5.089,0,0,1,.453-2.2,3.451,3.451,0,0,1,1.3-1.492,3.7,3.7,0,0,1,2-.531,3.39,3.39,0,0,1,2.363.852,3.043,3.043,0,0,1,1,2.211H41.6a1.992,1.992,0,0,0-.621-1.348A1.932,1.932,0,0,0,39.6,9.578a2.023,2.023,0,0,0-1.707.793,3.724,3.724,0,0,0-.605,2.293v.273a3.65,3.65,0,0,0,.6,2.25A2.033,2.033,0,0,0,39.609,15.977Zm6.344-7.43.039.938A3.122,3.122,0,0,1,48.5,8.391,2.417,2.417,0,0,1,50.914,9.75a3.2,3.2,0,0,1,1.1-.984,3.242,3.242,0,0,1,1.6-.375q2.781,0,2.828,2.945V17H54.992V11.422a1.941,1.941,0,0,0-.414-1.355,1.823,1.823,0,0,0-1.391-.449,1.916,1.916,0,0,0-1.336.48,1.949,1.949,0,0,0-.617,1.293V17H49.781V11.461a1.613,1.613,0,0,0-1.8-1.844,1.934,1.934,0,0,0-1.945,1.211V17H44.586V8.547Zm17.586,6.211a1.064,1.064,0,0,0-.441-.91,4.249,4.249,0,0,0-1.539-.559,7.277,7.277,0,0,1-1.742-.562,2.479,2.479,0,0,1-.953-.781,1.869,1.869,0,0,1-.309-1.078,2.193,2.193,0,0,1,.879-1.758,3.432,3.432,0,0,1,2.246-.719,3.532,3.532,0,0,1,2.332.742,2.357,2.357,0,0,1,.895,1.9H63.453a1.3,1.3,0,0,0-.5-1.023,1.888,1.888,0,0,0-1.27-.43,1.976,1.976,0,0,0-1.234.344,1.082,1.082,0,0,0-.445.9.877.877,0,0,0,.414.789,5.1,5.1,0,0,0,1.5.508,7.8,7.8,0,0,1,1.754.578,2.558,2.558,0,0,1,1,.809,1.988,1.988,0,0,1,.324,1.152,2.163,2.163,0,0,1-.906,1.816,3.8,3.8,0,0,1-2.352.684,4.257,4.257,0,0,1-1.8-.359,2.922,2.922,0,0,1-1.223-1,2.42,2.42,0,0,1-.441-1.395h1.445a1.5,1.5,0,0,0,.582,1.152,2.258,2.258,0,0,0,1.434.426,2.331,2.331,0,0,0,1.316-.332A1.02,1.02,0,0,0,63.539,14.758Z" transform="translate(647.355 3231.087)" fill="#12263f"/>
    <path id="Trazado_896186" data-name="Trazado 896186" d="M8.078,12.148a6.61,6.61,0,0,1-.867,3.773A3.084,3.084,0,0,1,4.5,17.156a3.107,3.107,0,0,1-2.7-1.207A6.274,6.274,0,0,1,.9,12.344v-1.93a6.463,6.463,0,0,1,.867-3.727A3.108,3.108,0,0,1,4.484,5.469a3.136,3.136,0,0,1,2.7,1.176,6.237,6.237,0,0,1,.891,3.629ZM6.633,10.172A5.3,5.3,0,0,0,6.117,7.5a1.775,1.775,0,0,0-1.633-.84,1.751,1.751,0,0,0-1.617.836,5.171,5.171,0,0,0-.523,2.57v2.313A5.381,5.381,0,0,0,2.879,15.1a1.771,1.771,0,0,0,1.621.879,1.747,1.747,0,0,0,1.59-.828,5.186,5.186,0,0,0,.543-2.609Z" transform="translate(627.355 3306.177)" fill="#12263f"/>
    <path id="Trazado_895431" data-name="Trazado 895431" d="M-5704-8311c.2.115,13.08,70.934,13.08,70.934l10.257-73" transform="translate(6465.711 11626.677)" fill="none" stroke="#707070" stroke-width="1" stroke-dasharray="11"/>
    <path id="Trazado_896187" data-name="Trazado 896187" d="M4,0A4,4,0,1,1,0,4,4,4,0,0,1,4,0Z" transform="translate(757.711 3311.677)" fill="#e8624e"/>
    <path id="Trazado_896188" data-name="Trazado 896188" d="M4,0A4,4,0,1,1,0,4,4,4,0,0,1,4,0Z" transform="translate(780.711 3309.677)" fill="#e8624e"/>
    <g id="Trazado_896189" data-name="Trazado 896189" transform="translate(767.711 3371.677)" fill="none">
      <path d="M6.5,0A6.5,6.5,0,1,1,0,6.5,6.5,6.5,0,0,1,6.5,0Z" stroke="none"/>
      <path d="M 6.5 1 C 3.467289924621582 1 1 3.467289924621582 1 6.5 C 1 9.532710075378418 3.467289924621582 12 6.5 12 C 9.532710075378418 12 12 9.532710075378418 12 6.5 C 12 3.467289924621582 9.532710075378418 1 6.5 1 M 6.5 0 C 10.0898494720459 0 13 2.910149574279785 13 6.5 C 13 10.0898494720459 10.0898494720459 13 6.5 13 C 2.910149574279785 13 0 10.0898494720459 0 6.5 C 0 2.910149574279785 2.910149574279785 0 6.5 0 Z" stroke="none" fill="#707070"/>
    </g>
    <path id="Trazado_895432" data-name="Trazado 895432" d="M-5773.776-7851h-34.854" transform="translate(6465.711 11626.677)" fill="none" stroke="#31a77e" stroke-width="4"/>
    <path id="Trazado_895433" data-name="Trazado 895433" d="M27.766,0H0" transform="translate(701.573 3809.133) rotate(-90)" fill="none" stroke="#31a77e" stroke-width="4"/>
    <path id="Trazado_895434" data-name="Trazado 895434" d="M27.766,0H0" transform="translate(874.573 3809.133) rotate(-90)" fill="none" stroke="#31a77e" stroke-width="4"/>
    <path id="Trazado_895435" data-name="Trazado 895435" d="M27.766,0H0" transform="translate(926.672 3776.867) rotate(180)" fill="none" stroke="#31a77e" stroke-width="4"/>
    <path id="Trazado_895436" data-name="Trazado 895436" d="M27.766,0H0" transform="translate(926.672 3456.177) rotate(180)" fill="none" stroke="#31a77e" stroke-width="4"/>
    <path id="Trazado_895437" data-name="Trazado 895437" d="M27.766,0H0" transform="translate(890.672 3301.677) rotate(180)" fill="none" stroke="#31a77e" stroke-width="4"/>
    <path id="Trazado_895441" data-name="Trazado 895441" d="M27.766,0H0" transform="translate(808.121 3301.677) rotate(180)" fill="none" stroke="#31a77e" stroke-width="4"/>
    <path id="Trazado_895443" data-name="Trazado 895443" d="M27.766,0H0" transform="translate(772.211 3277.911) rotate(90)" fill="none" stroke="#31a77e" stroke-width="4"/>
    <path id="Trazado_895442" data-name="Trazado 895442" d="M27.766,0H0" transform="translate(808.121 3397.177) rotate(180)" fill="none" stroke="#31a77e" stroke-width="4"/>
    <path id="Trazado_895440" data-name="Trazado 895440" d="M27.766,0H0" transform="translate(657.039 3315.677)" fill="none" stroke="#31a77e" stroke-width="4"/>
    <path id="Trazado_895438" data-name="Trazado 895438" d="M47.137,0H0" transform="translate(854.855 3252.489) rotate(90)" fill="none" stroke="#31a77e" stroke-width="4"/>
    <path id="Trazado_895439" data-name="Trazado 895439" d="M47.137,0H0" transform="translate(699.855 3252.489) rotate(90)" fill="none" stroke="#31a77e" stroke-width="4"/>
    <path id="Trazado_896190" data-name="Trazado 896190" d="M4.5,0,9,8H0Z" transform="translate(649.211 3780.177) rotate(-90)" fill="#169f70"/>
    <path id="Trazado_896191" data-name="Trazado 896191" d="M4.5,0,9,8H0Z" transform="translate(706.073 3815.266) rotate(180)" fill="#169f70"/>
    <path id="Trazado_896192" data-name="Trazado 896192" d="M4.5,0,9,8H0Z" transform="translate(879.073 3815.266) rotate(180)" fill="#169f70"/>
    <path id="Trazado_896193" data-name="Trazado 896193" d="M4.5,0,9,8H0Z" transform="translate(932.805 3772.367) rotate(90)" fill="#169f70"/>
    <path id="Trazado_896194" data-name="Trazado 896194" d="M4.5,0,9,8H0Z" transform="translate(932.805 3451.677) rotate(90)" fill="#169f70"/>
    <path id="Trazado_896195" data-name="Trazado 896195" d="M4.5,0,9,8H0Z" transform="translate(896.805 3297.177) rotate(90)" fill="#169f70"/>
    <path id="Trazado_896196" data-name="Trazado 896196" d="M4.5,0,9,8H0Z" transform="translate(814.254 3297.177) rotate(90)" fill="#169f70"/>
    <path id="Trazado_896197" data-name="Trazado 896197" d="M4.5,0,9,8H0Z" transform="translate(767.711 3271.778)" fill="#169f70"/>
    <path id="Trazado_896198" data-name="Trazado 896198" d="M4.5,0,9,8H0Z" transform="translate(814.254 3392.677) rotate(90)" fill="#169f70"/>
    <path id="Trazado_896199" data-name="Trazado 896199" d="M4.5,0,9,8H0Z" transform="translate(650.906 3320.177) rotate(-90)" fill="#169f70"/>
    <path id="Trazado_896200" data-name="Trazado 896200" d="M4.5,0,9,8H0Z" transform="translate(850.355 3245.851)" fill="#169f70"/>
    <path id="Trazado_896201" data-name="Trazado 896201" d="M4.5,0,9,8H0Z" transform="translate(695.355 3245.851)" fill="#169f70"/>
  </g>
</svg>
